<?xml version="1.0" standalone="no"?>
<!DOCTYPE svg PUBLIC "-//W3C//DTD SVG 1.1//EN" "http://www.w3.org/Graphics/SVG/1.1/DTD/svg11.dtd" >
<svg xmlns="http://www.w3.org/2000/svg">
<metadata>Generated by IcoMoon</metadata>
<defs>
<font id="icomoon" horiz-adv-x="1024">
<font-face units-per-em="1024" ascent="960" descent="-64" />
<missing-glyph horiz-adv-x="1024" />
<glyph unicode="&#x20;" horiz-adv-x="512" d="" />
<glyph unicode="&#xe900;" glyph-name="uniE900" d="M706.65 609.123l-233.861-233.861-151.366 151.365-43.984-43.984 151.365-151.366-0.631-0.631 43.985-43.984 278.477 278.476z" />
<glyph unicode="&#xe901;" glyph-name="01-" d="M512 239.79l-244.762-128.674 46.732 272.523-198.007 193.034 273.657 39.791 122.381 247.955 122.381-247.978 273.657-39.768-198.031-193.010 46.755-272.546z" />
<glyph unicode="&#xe902;" glyph-name="a" d="M440.32 909.312l-349.696-911.872h128l100.352 276.48h381.44l106.496-275.968h137.216l-373.248 911.36h-130.56zM353.28 372.224l100.352 267.264c20.992 57.856 37.376 115.712 49.152 174.080 14.336-49.152 35.84-112.64 64.512-188.928l95.232-252.416h-309.248z" />
<glyph unicode="&#xe903;" glyph-name="A" horiz-adv-x="1052" d="M678.143 724.865v96.82h373.45v-96.82h-373.45zM695.308-63.004l-96.682 312.481h-370.144l-98.051-312.481h-129.822l343.892 1022.533h142.257l343.892-1022.533h-135.341zM518.514 508.942c-37.29 115.783-69.047 227.389-102.201 345.953h-5.519c-31.771-119.96-64.911-230.17-100.818-345.953l-49.724-156.24h306.602l-48.341 156.24z" />
<glyph unicode="&#xe904;" glyph-name="A1" horiz-adv-x="1052" d="M1051.835 724.757h-138.378v-138.378h-96.865v138.378h-138.378v96.865h138.378v138.378h96.865v-138.378h138.378v-96.865zM695.386-63.474l-96.726 312.624h-370.314l-98.096-312.624h-129.882l344.050 1023.004h142.322l344.050-1023.004h-135.403zM518.511 508.734c-37.307 115.837-69.078 227.494-102.248 346.112h-5.521c-31.786-120.016-64.941-230.275-100.864-346.112l-49.747-156.312h306.743l-48.363 156.312z" />
<glyph unicode="&#xe905;" glyph-name="close" d="M557.312 446.752l265.28 263.904c12.544 12.48 12.608 32.704 0.128 45.248-12.512 12.576-32.704 12.608-45.248 0.128l-265.344-263.936-263.040 263.84c-12.448 12.48-32.704 12.544-45.248 0.064-12.512-12.48-12.544-32.736-0.064-45.28l262.976-263.776-265.152-263.744c-12.544-12.48-12.608-32.704-0.128-45.248 5.788-5.831 13.807-9.44 22.668-9.44 0.007 0 0.014 0 0.021 0h-0.001c8.16 0 16.32 3.104 22.56 9.312l265.216 263.808 265.44-266.24c6.24-6.272 14.432-9.408 22.656-9.408 0.005 0 0.012 0 0.018 0 8.815 0 16.795 3.571 22.574 9.344v0c12.512 12.48 12.544 32.704 0.064 45.248l-265.376 266.176z" />
<glyph unicode="&#xe906;" glyph-name="icon-_-1" d="M819.2 161.6c14.4 0 27.2 11.2 27.2 27.2v625.6c0 33.6-27.2 60.8-60.8 60.8h-532.8c-33.6 0-60.8-27.2-60.8-60.8v-696c0-52.8 43.2-97.6 96-97.6h528c14.4 0 27.2 11.2 27.2 27.2s-11.2 27.2-27.2 27.2h-16v88h19.2zM745.6 75.2h-457.6c-24 0-43.2 19.2-43.2 43.2s19.2 43.2 43.2 43.2h457.6v-86.4zM792 216h-504c-16 0-30.4-3.2-43.2-11.2v609.6c0 3.2 3.2 8 8 8h323.2v-224l70.4 54.4 57.6-54.4v224h81.6c3.2 0 8-3.2 8-8v-598.4z" />
<glyph unicode="&#xe907;" glyph-name="PC-t--" d="M438.279 85.109h-248.225v48.131h200.094v77.439l-92.539 65.993c-8.011 5.782-13.198 15.045-13.325 25.527v0.020c-0.105 10.13 4.677 19.789 12.785 25.828l93.079 69.424v104.701l74.595 5.923-160.953 298.049 42.351 22.89 196.063-363.102-103.925-8.225v-68.413c0-9.988-4.771-19.506-12.762-25.476l-81.716-60.963 81.151-57.862c8.367-5.994 13.325-15.652 13.325-25.875v-134.008zM173.559 677.619c0-24.294 19.694-43.988 43.988-43.988s43.988 19.694 43.988 43.988v0c0 24.294-19.694 43.988-43.988 43.988s-43.988-19.694-43.988-43.988v0zM554.742 228.847c-10.54 0-20.211 6.98-23.173 17.626-3.56 12.809 3.937 26.064 16.733 29.636 12.151 3.361 20.635 14.524 20.635 27.144 0 12.503-8.015 23.338-19.941 26.957-12.726 3.877-19.894 17.32-16.040 30.035 3.877 12.738 17.38 19.859 30.024 16.028 32.35-9.847 54.089-39.177 54.089-73.020 0-34.148-22.973-64.371-55.863-73.537-2.162-0.588-4.337-0.87-6.463-0.87zM625.635 139.469c-8.66 0-17.016 4.677-21.328 12.879-6.181 11.751-1.657 26.298 10.106 32.48 44.301 23.29 71.822 68.813 71.822 118.802 0 49.189-26.886 94.36-70.153 117.885-11.68 6.346-16.005 20.963-9.648 32.643 6.346 11.68 20.94 15.981 32.632 9.659 58.778-31.962 95.299-93.349 95.299-160.188 0-67.92-37.379-129.777-97.556-161.387-3.238-1.745-7.087-2.771-11.175-2.773h-0.001zM697.727 66.966c-8.66 0-17.016 4.677-21.328 12.879-6.181 11.751-1.657 26.299 10.106 32.48 71.434 37.556 115.804 110.976 115.804 191.586 0 79.342-43.349 152.174-113.114 190.106-11.68 6.369-16.005 20.963-9.648 32.643 6.346 11.704 20.963 15.981 32.632 9.659 85.287-46.369 138.261-135.417 138.261-232.409 0-98.567-54.23-188.297-141.54-234.171-3.238-1.745-7.086-2.771-11.174-2.773h-0.001z" />
<glyph unicode="&#xe908;" d="M0 448c0-282.77 229.23-512 512-512s512 229.23 512 512v0c0 282.77-229.23 512-512 512s-512-229.23-512-512v0z" />
<glyph unicode="&#xe909;" d="M407.704 602.924c0 9.205 4.844 18.032 13.468 24.54 17.958 13.554 47.074 13.554 65.032 0l230.402-173.887c17.958-13.553 17.958-35.527 0-49.080l-230.402-173.888c-8.624-6.508-20.32-10.165-32.516-10.165-25.396 0-45.984 15.539-45.984 34.706v347.774z" />
<glyph unicode="&#xe90a;" glyph-name="-" d="M232.727 168.727h558.545c51.2 0 93.091 41.891 93.091 93.091v535.273c0 51.2-41.891 93.091-93.091 93.091h-558.545c-51.2 0-93.091-41.891-93.091-93.091v-698.182c0-51.2 41.891-93.091 93.091-93.091h616.727c18.618 0 34.909 16.291 34.909 34.909s-16.291 34.909-34.909 34.909h-593.455c-25.6 0-46.545 20.945-46.545 46.545v48.873c6.982 0 16.291-2.327 23.273-2.327zM209.455 773.818c0 25.6 20.945 46.545 46.545 46.545h69.818v-204.8l53.527 51.2c11.636 9.309 27.927 9.309 37.236 0l48.873-51.2v204.8h302.545c25.6 0 46.545-20.945 46.545-46.545v-488.727c0-25.6-20.945-46.545-46.545-46.545h-512c-25.6 0-46.545 20.945-46.545 46.545v488.727z" />
<glyph unicode="&#xe90b;" glyph-name="-7" d="M232.727 168.727h558.545c51.2 0 93.091 41.891 93.091 93.091v535.273c0 51.2-41.891 93.091-93.091 93.091h-558.545c-51.2 0-93.091-41.891-93.091-93.091v-698.182c0-51.2 41.891-93.091 93.091-93.091h616.727c18.618 0 34.909 16.291 34.909 34.909s-16.291 34.909-34.909 34.909h-593.455c-25.6 0-46.545 20.945-46.545 46.545v48.873c6.982 0 16.291-2.327 23.273-2.327zM325.818 843.636h139.636v-228.073l-48.873 51.2c-11.636 9.309-27.927 9.309-37.236 0l-53.527-51.2v228.073z" />
<glyph unicode="&#xe90c;" glyph-name="8" horiz-adv-x="1028" d="M332.8 169.472q19.456 0 36.864-7.168t30.208-19.968 20.48-30.208 7.68-36.864-7.68-36.864-20.48-30.208-30.208-20.48-36.864-7.68q-20.48 0-37.888 7.68t-30.208 20.48-20.48 30.208-7.68 36.864 7.68 36.864 20.48 30.208 30.208 19.968 37.888 7.168zM758.784 167.424q19.456 0 37.376-7.168t30.72-19.968 20.48-30.208 7.68-36.864-7.68-36.864-20.48-30.208-30.72-20.48-37.376-7.68-36.864 7.68-30.208 20.48-20.48 30.208-7.68 36.864 7.68 36.864 20.48 30.208 30.208 19.968 36.864 7.168zM930.816 749.056q28.672 0 44.544-7.68t22.528-18.944 6.144-24.064-3.584-22.016-13.312-37.888-22.016-62.976-23.552-68.096-18.944-53.248q-13.312-40.96-33.28-56.832t-49.664-15.872h-537.6l14.336-92.16h517.12q49.152 0 49.152-41.984 0-20.48-9.728-35.84t-38.4-14.336h-536.576q-20.48 0-34.304 9.216t-23.040 24.064-14.848 32.256-8.704 32.768q-1.024 6.144-5.632 29.696t-11.264 58.88-14.848 78.848-16.384 87.552q-19.456 103.424-44.032 230.4h-76.8q-15.36 0-25.6 7.68t-16.896 18.432-9.216 23.040-2.56 22.528q0 20.48 13.824 33.792t37.376 12.288h103.424q20.48 0 32.768-6.144t19.456-15.36 10.24-18.944 5.12-16.896q2.048-8.192 4.096-23.040t4.096-30.208q3.072-18.432 6.144-38.912h700.416zM892.928 657.92l-641.024 2.048 35.84-185.344 535.552-1.024z" />
<glyph unicode="&#xe90d;" glyph-name="9" d="M914.817 422.689h-805.635c-13.482 0-24.413 11.065-24.413 24.559s10.931 24.559 24.413 24.559h805.635c13.482 0 24.413-11.065 24.413-24.559s-10.931-24.559-24.413-24.559zM536.441 850.064v-805.635c0-13.482-11.065-24.413-24.559-24.413s-24.559 10.931-24.559 24.413v805.635c0 13.482 11.065 24.413 24.559 24.413s24.559-10.931 24.559-24.413z" />
<glyph unicode="&#xe90e;" glyph-name="-01" d="M174.933 469.333v-42.667h-46.933c-12.8 0-21.333 8.533-21.333 21.333s8.533 21.333 21.333 21.333h46.933zM759.467 469.333h136.533c12.8 0 21.333-8.533 21.333-21.333s-8.533-21.333-21.333-21.333h-136.533v42.667zM458.667 170.667c-147.2 0-266.667 119.467-266.667 266.667s119.467 266.667 266.667 266.667 266.667-119.467 266.667-266.667-119.467-266.667-266.667-266.667zM458.667 215.467c123.733 0 221.867 100.267 221.867 221.867s-98.133 221.867-221.867 221.867-221.867-98.133-221.867-221.867 98.133-221.867 221.867-221.867z" />
<glyph unicode="&#xe90f;" glyph-name="2" d="M515.8 65.2h-6c-12.1 0-22 9.9-22 22v416c0 12.1 9.9 22 22 22h6c12.1 0 22-9.9 22-22v-416c0-12.1-9.9-22-22-22zM678.1 259.7l4.2-4.2c8.6-8.6 8.6-22.6 0-31.1l-152.7-152.8c-8.6-8.6-22.6-8.6-31.1 0l-4.2 4.2c-8.6 8.6-8.6 22.6 0 31.1l152.7 152.8c8.5 8.5 22.5 8.5 31.1 0zM531.4 75.8l-4.2-4.2c-8.6-8.6-22.6-8.6-31.1 0l-152.8 152.7c-8.6 8.6-8.6 22.6 0 31.1l4.2 4.2c8.6 8.6 22.6 8.6 31.1 0l152.7-152.7c8.7-8.5 8.7-22.5 0.1-31.1zM906.9 451.7c-11.3 26.7-27.4 50.6-48 71.2s-44.5 36.7-71.2 48c-8.1 3.4-16.4 6.4-24.7 8.8v1.8c0 33.7-6.6 66.5-19.7 97.3-12.6 29.8-30.6 56.5-53.6 79.5s-49.7 41-79.5 53.6c-30.8 13-63.6 19.7-97.3 19.7s-66.5-6.6-97.3-19.7c-29.8-12.6-56.5-30.6-79.5-53.6-22.9-22.9-41-49.7-53.6-79.5-13-30.8-19.7-63.6-19.7-97.3v-1c0.1 0 0.2 0 0.3 0.1-9.5-2.6-18.8-5.8-28-9.7-26.7-11.3-50.6-27.4-71.2-48s-36.7-44.5-48-71.2c-11.7-27.6-17.6-57-17.6-87.2s5.9-59.6 17.6-87.2c11.3-26.7 27.4-50.6 48-71.2s44.5-36.7 71.2-48c26.7-11.3 55-17.2 84.2-17.6v44c-98 1.6-177 81.6-177 180 0 95.4 74.2 173.5 168.1 179.6-2.3 12.3-3.5 24.9-3.5 37.9 0 2 0 4 0.1 6h-0.1c3.4 110.8 94.3 199.5 205.9 199.5 111.7 0 202.6-88.9 205.9-199.7h0.1c0.1-1.9 0.1-3.8 0.1-5.8 0-13-1.2-25.8-3.5-38.1 92.4-7.7 164.9-85 164.9-179.4 0-98.4-79-178.4-177-180v-44c29.2 0.4 57.5 6.3 84.2 17.6s50.6 27.4 71.2 48 36.7 44.5 48 71.2c11.7 27.6 17.6 57 17.6 87.2s-5.7 59.5-17.4 87.2z" />
<glyph unicode="&#xe910;" glyph-name="3" d="M760.8 743.5c-53.2 38.6-123.7 31-161.8-15.5 38.6-12.8 75.9-31.8 110.7-57.1s64.5-55.1 88.9-88.1c31 51.7 15.4 122-37.8 160.7zM314.3 671.8c34.8 25 72.1 43.8 110.7 56.6-38.2 46.1-108.7 53.5-161.8 15.3-53.2-38.4-68.8-107.9-37.8-159.2 24.5 32.7 54.2 62.2 88.9 87.3zM771.8 420.1c0 8-0.5 15.9-1.1 23.8-11 127.3-109.4 228.9-233.8 241.9-5.5 0.6-11.1 0.7-16.7 0.9-3.3 0.2-6.7 0.6-10.1 0.6h-0.2c-144.7 0-261.9-119.6-261.9-267.2 0-1.2 0.2-2.4 0.2-3.6 0.9-75.1 32.5-142.5 82.2-190.3-16.5-8.6-28.1-26-28.1-46.3 0-28.7 22.9-52.1 51.1-52.1 27 0 48.8 21.4 50.7 48.4 27.9-12.6 58.4-20.6 90.5-22.5 5.1-0.3 10.2-0.8 15.3-0.8 5.9 0 11.6 0.5 17.4 0.9 32.5 2.2 63.3 10.6 91.5 23.8 1.2-27.7 23.4-49.8 50.8-49.8 28.2 0 51.1 23.3 51.1 52.1 0 21.2-12.4 39.3-30.1 47.5 49.8 48.5 81.2 116.8 81.2 192.7zM512.4 230.3c-103.9 0-188.4 85.8-188.4 191.2s84.5 191.2 188.4 191.2 188.4-85.7 188.4-191.2-84.6-191.2-188.4-191.2zM491 567.5h40.5v-162.2h-40.5v162.2zM491 445.8h121.6v-40.5h-121.6v40.5z" />
<glyph unicode="&#xe911;" d="M952 150.656h-879.616c-0.118-0.006-0.255-0.010-0.394-0.010-4.489 0-8.128 3.639-8.128 8.128 0 0.138 0.003 0.276 0.010 0.413l-0.001-0.019c0 5.12 3.392 8.512 8.512 8.512h879.616c5.12 0 8.512-3.392 8.512-8.512 0-4.992-4.992-8.512-8.512-8.512z" />
<glyph unicode="&#xe912;" d="M524.928 159.104c0-31.232 16.832-60.16 44.032-75.904 27.264-15.616 60.8-15.616 88.128 0 27.392 15.616 44.032 44.544 44.032 75.904 0 31.232-16.832 60.16-44.032 76.032-12.655 7.363-27.852 11.709-44.064 11.709s-31.409-4.346-44.489-11.937l0.425 0.228c-26.497-15.415-44.028-43.676-44.032-76.031v-0.001z" />
<glyph unicode="&#xe913;" d="M612.992 62.976c-52.48 0-96.576 44.032-96.576 96.128 0 52.352 44.096 96 96.576 96s96.64-41.92 96.64-96c0.002-0.231 0.003-0.504 0.003-0.777 0-52.666-42.694-95.36-95.36-95.36-0.451 0-0.902 0.003-1.351 0.009l0.068-0.001zM612.992 238.528c-44.032 0-79.616-35.52-79.616-79.232s35.648-79.232 79.616-79.232c0.095 0 0.208-0.001 0.32-0.001 43.74 0 79.214 35.385 79.36 79.091v0.014c0 43.776-35.52 79.36-79.68 79.36zM952 452.416h-879.616c-5.12 0-8.512 3.456-8.512 8.448 0 5.12 3.392 8.384 8.512 8.384h879.616c5.12 0 8.512-3.328 8.512-8.384 0-4.992-4.992-8.448-8.512-8.448z" />
<glyph unicode="&#xe914;" d="M202.88 462.592c0-31.36 16.768-60.288 44.032-75.904 27.328-15.68 60.928-15.68 88.128 0 26.469 15.377 43.982 43.595 43.982 75.904s-17.513 60.527-43.565 75.68l-0.418 0.224c-12.648 7.393-27.846 11.758-44.064 11.758s-31.416-4.365-44.485-11.984l0.421 0.226c-26.47-15.384-43.993-43.593-44.032-75.898v-0.006z" />
<glyph unicode="&#xe915;" d="M291.008 366.656c-52.544 0-96.576 43.776-96.576 96s44.032 96.064 96.576 96.064 96.64-43.84 96.64-96.064c0-53.952-42.432-96-96.64-96zM291.008 541.76c-44.032 0-79.68-35.392-79.68-79.232s35.584-79.168 79.68-79.168 79.68 35.328 79.68 79.168-35.648 79.232-79.68 79.232zM952 727.104h-879.616c-5.12 0-8.512 3.392-8.512 8.512 0 4.992 3.392 8.384 8.512 8.384h879.616c5.12 0 8.512-3.392 8.512-8.384 0-5.056-4.992-8.512-8.512-8.512z" />
<glyph unicode="&#xe916;" d="M612.992 735.616c0-48.654 39.442-88.096 88.096-88.096s88.096 39.442 88.096 88.096v0c0 31.232-16.896 60.224-44.096 75.904-12.634 7.364-27.809 11.711-44 11.711s-31.366-4.347-44.423-11.938l0.423 0.227c-26.487-15.379-44.029-43.585-44.096-75.894v-0.010z" />
<glyph unicode="&#xe917;" d="M701.184 639.552c-53.027 0.39-95.951 43.091-96.703 95.993l-0.001 0.071c0 52.224 44.032 96 96.704 96 52.544 0 96.576-43.84 96.576-96 0-52.288-42.24-96.064-96.576-96.064zM701.184 814.784c-0.095 0-0.208 0.001-0.32 0.001-43.762 0-79.251-35.422-79.36-79.158v-0.010c0-43.904 35.648-79.232 79.68-79.232s79.616 35.328 79.616 79.232c0 43.776-35.52 79.168-79.616 79.168z" />
<glyph unicode="&#xe918;" glyph-name="-8" d="M160.040 896.56c0.072 0.001 0.156 0.001 0.241 0.001 17.629 0 31.92-14.291 31.92-31.92 0-0.085 0-0.169-0.001-0.254v0.013-831.84c0-17.695-14.345-32.040-32.040-32.040s-32.040 14.345-32.040 32.040v0 831.84c-0.001 0.071-0.001 0.156-0.001 0.24 0 17.629 14.291 31.92 31.92 31.92 0 0 0.001 0 0.001 0v0zM512.12 896.56c17.629 0 31.92-14.291 31.92-31.92v0-832.080c0-17.695-14.345-32.040-32.040-32.040s-32.040 14.345-32.040 32.040v0 831.84c-0.001 0.072-0.001 0.156-0.001 0.241 0 17.629 14.291 31.92 31.92 31.92 0.085 0 0.169 0 0.254-0.001h-0.013zM864.2 896.56c0 0 0.001 0 0.001 0 17.629 0 31.92-14.291 31.92-31.92 0-0.084 0-0.169-0.001-0.253v0.013-831.84c0-17.695-14.345-32.040-32.040-32.040s-32.040 14.345-32.040 32.040v0 831.84c0 17.629 14.291 31.92 31.92 31.92v0zM64.040 736h192c17.695 0 32.040-14.345 32.040-32.040s-14.345-32.040-32.040-32.040v0h-192c-17.695 0-32.040 14.345-32.040 32.040s14.345 32.040 32.040 32.040v0zM416.12 256h192c17.695 0 32.040-14.345 32.040-32.040s-14.345-32.040-32.040-32.040v0h-192c-17.695 0-32.040 14.345-32.040 32.040s14.345 32.040 32.040 32.040v0zM768.2 736h192c17.695 0 32.040-14.345 32.040-32.040s-14.345-32.040-32.040-32.040v0h-192c-17.695 0-32.040 14.345-32.040 32.040s14.345 32.040 32.040 32.040v0z" />
<glyph unicode="&#xe919;" glyph-name="10" horiz-adv-x="1055" d="M24.513 64.535c-13.518 0-24.513 11-24.513 24.52v679.349c0 10.254 6.465 19.508 16.088 23.027 18.519 6.775 117.866 40.568 255.293 40.568 87.961 0 174.547-13.617 257.352-40.471 9.92-3.27 16.953-12.453 16.953-23.279 0-0.019 0-0.037 0-0.056v0.003-673.926c0-13.524-10.992-24.527-24.501-24.527-1.814 0-3.634 0.202-5.41 0.603-30.367 6.851-138.956 29.201-261.221 29.201-86.713 0-161.249-11.268-221.54-33.492-2.526-0.962-5.448-1.519-8.5-1.519-0.001 0-0.002 0-0.003 0v0zM37.045 759.513v-652.863c61.14 19.875 134.203 29.943 217.507 29.943 110.425 0 210.013-17.673 254.089-26.809v649.26c-76.482 23.834-156.251 35.91-237.262 35.91-117.088 0.001-204.473-25.427-234.334-35.44zM534.492 64.535c-13.518 0-24.514 11-24.514 24.52v679.349c0 10.256 6.467 19.51 16.092 23.027 18.516 6.774 117.862 40.568 255.289 40.568 87.962 0 174.545-13.617 257.354-40.471 9.92-3.269 16.954-12.452 16.954-23.279 0-0.019 0-0.038 0-0.056v0.003-673.926c0-13.524-10.99-24.527-24.502-24.527-1.813 0-3.634 0.202-5.41 0.604-30.366 6.85-138.958 29.2-261.222 29.2-86.712 0-161.25-11.268-221.541-33.492-2.524-0.962-5.443-1.519-8.492-1.519-0.003 0-0.005 0-0.008 0v0zM547.025 759.513v-652.862c61.141 19.875 134.205 29.942 217.508 29.942 110.421 0 210.011-17.673 254.088-26.809v649.26c-76.485 23.834-156.251 35.911-237.26 35.911-117.092 0-204.474-25.428-234.336-35.442zM117.102 613.213l-0.010 0.035c-2.697 10.237 3.715 20.642 14.070 22.843 18.772 3.991 50.157 9.786 88.223 13.405 74.276 7.063 139.532 2.9 194.339-12.366 10.287-2.865 16.081-13.748 12.633-23.855-3.157-9.255-12.978-14.509-22.4-11.891-100.948 28.060-221.128 7.683-265.102-1.579-9.669-2.035-19.236 3.852-21.752 13.406zM117.102 462.075l-0.010 0.035c-2.697 10.237 3.715 20.643 14.070 22.843 18.772 3.991 50.157 9.786 88.223 13.405 74.276 7.063 139.532 2.901 194.339-12.366 10.287-2.865 16.081-13.748 12.633-23.855-3.157-9.255-12.978-14.509-22.4-11.891-100.948 28.060-221.128 7.683-265.102-1.579-9.669-2.036-19.236 3.852-21.752 13.406zM117.102 322.367l-0.010 0.035c-2.697 10.237 3.715 20.642 14.070 22.843 18.772 3.991 50.157 9.784 88.223 13.404 74.276 7.065 139.532 2.9 194.339-12.364 10.287-2.865 16.081-13.749 12.633-23.855-3.157-9.255-12.978-14.511-22.4-11.891-100.948 28.060-221.128 7.683-265.102-1.579-9.669-2.036-19.236 3.852-21.752 13.406zM628.008 613.213l-0.008 0.035c-2.697 10.237 3.712 20.642 14.068 22.843 18.773 3.991 50.157 9.786 88.224 13.405 74.275 7.063 139.53 2.9 194.339-12.366 10.288-2.865 16.083-13.748 12.633-23.855-3.156-9.255-12.977-14.509-22.399-11.891-100.949 28.060-221.131 7.683-265.104-1.579-9.667-2.035-19.237 3.852-21.755 13.406zM628.008 462.075l-0.008 0.035c-2.697 10.237 3.712 20.643 14.068 22.843 18.773 3.991 50.157 9.786 88.224 13.405 74.275 7.063 139.53 2.901 194.339-12.366 10.288-2.865 16.083-13.748 12.633-23.855-3.156-9.255-12.977-14.509-22.399-11.891-100.949 28.060-221.131 7.683-265.104-1.579-9.667-2.036-19.237 3.852-21.755 13.406zM628.008 322.367l-0.008 0.035c-2.697 10.237 3.712 20.642 14.068 22.843 18.773 3.991 50.157 9.784 88.224 13.404 74.275 7.065 139.53 2.9 194.339-12.364 10.288-2.865 16.083-13.749 12.633-23.855-3.156-9.255-12.977-14.511-22.399-11.891-100.949 28.060-221.131 7.683-265.104-1.579-9.667-2.036-19.237 3.852-21.755 13.406z" />
<glyph unicode="&#xe91a;" glyph-name="11" d="M950.852 873.935c0 47.532-38.532 86.065-86.065 86.065v0h-705.584c-0.074 0-0.162 0-0.249 0-47.055 0-85.265-37.87-85.815-84.794v-0.052l-48.762-853.333c0.139-47.427 38.618-85.821 86.064-85.821 0 0 0 0 0 0h803.108c47.566 0.134 86.073 38.724 86.073 86.308 0 0.429-0.003 0.857-0.009 1.284l0.001-0.065zM511.996 448c-132.846 0.139-240.501 107.794-240.64 240.627v0.013c0.003 13.463 10.917 24.376 24.381 24.376s24.378-10.913 24.381-24.376v0c0-105.971 85.907-191.878 191.878-191.878s191.878 85.907 191.878 191.878v0c0 13.465 10.916 24.381 24.381 24.381s24.381-10.916 24.381-24.381v0c-0.139-132.846-107.794-240.501-240.627-240.64h-0.013z" />
<glyph unicode="&#xe91b;" glyph-name="-9" d="M765.9 167.4h-507.8c-18.6 0-31-11.1-31-27.8s12.4-27.8 31-27.8h507.8c18.6 0 31 11.1 31 27.8-0.1 16.7-12.4 27.8-31 27.8zM852.6 762c0 16.6 12.3 27.7 30.9 27.7s31-16.6 31-27.7v-655.7c0-55.5-55.7-105.6-123.9-105.6h-563.4c-55.7 5.5-111.5 44.5-117.7 94.5v700.1c0 66.6 68.1 100 136.2 100h421.1c74.3 0 123.8-38.9 123.8-100v-544.5c0-16.7-12.4-27.8-31-27.8h-520.1c-37.2 0-74.3-16.7-74.3-44.5v-61.1c0-27.8 43.4-55.6 80.5-55.6h545c31 0 62 27.8 62 55.6v644.6zM172.3 762.7v-483.1h559.1v483.1c0 21.3-8.5 41.8-23.6 56.9s-35.6 23.6-56.9 23.6h-398.1c-21.4 0-41.8-8.5-56.9-23.6-15.1-15-23.6-35.5-23.6-56.9z" />
<glyph unicode="&#xe91c;" glyph-name="4" d="M950.852 873.935c0 47.532-38.532 86.065-86.065 86.065v0h-705.584c-0.074 0-0.162 0-0.249 0-47.055 0-85.265-37.87-85.815-84.794v-0.052l-48.762-853.333c0.139-47.427 38.618-85.821 86.064-85.821 0 0 0 0 0 0h803.108c47.566 0.134 86.073 38.724 86.073 86.308 0 0.429-0.003 0.857-0.009 1.284l0.001-0.065zM913.55-15.238h-803.108c-0.006 0-0.013 0-0.020 0-20.173 0-36.606 16.013-37.281 36.022l-0.002 0.062 48.762 853.333c0.273 20.442 16.841 36.924 37.29 37.059h705.597c20.666-0.268 37.316-17.083 37.316-37.787 0-0.344-0.005-0.687-0.014-1.029l0.001 0.050 48.762-850.407c-0.137-20.546-16.757-37.166-37.29-37.303h-0.013zM728.254 713.021c-13.465 0-24.381-10.916-24.381-24.381v0c0-105.971-85.907-191.878-191.878-191.878s-191.878 85.907-191.878 191.878v0c-0.003 13.463-10.917 24.376-24.381 24.376s-24.378-10.913-24.381-24.376v0c0-132.902 107.738-240.64 240.64-240.64s240.64 107.738 240.64 240.64v0c0 13.465-10.916 24.381-24.381 24.381v0z" />
<glyph unicode="&#xe91d;" glyph-name="--" d="M823.4 863.1s-150.5-41.5-285.4-77.8h-52c-129.7 33.7-285.4 77.8-285.4 77.8-57.1 0-103.8-46.7-103.8-103.8v-544.9c0-57.1 49.3-85.6 103.8-103.8 0 0 140.1-38.9 285.4-77.8h52c145.3 38.9 285.4 77.8 285.4 77.8 54.5 12.9 103.8 46.7 103.8 103.8v544.9c-0.1 57.2-46.8 103.8-103.8 103.8zM486 84.7l-285.4 77.8c-28.5 7.7-51.9 23.3-51.9 51.9v544.9c0 28.5 23.3 51.9 51.9 51.9l285.4-77.9v-648.6zM875.2 214.5c0-28.5-23.3-44.1-51.9-51.9 0 0-140.1-38.9-285.4-77.8v648.5l285.4 77.8c28.5 0 51.9-23.3 51.9-51.9v-544.7z" />
<glyph unicode="&#xe91e;" glyph-name="--1" d="M938.667-7.111h-853.333c-31.403 0-56.889 25.486-56.889 56.889v483.556c0 31.431 25.486 56.889 56.889 56.889h142.222c15.701 0 28.444-12.743 28.444-28.444s-12.743-28.444-28.444-28.444h-85.333c-31.431 0-56.889-25.458-56.889-56.889v-426.667h227.556v796.444c0 31.403 25.486 56.889 56.889 56.889h284.444c31.403 0 56.889-25.486 56.889-56.889v-796.444h227.556v540.444c0 31.403-25.486 56.889-56.889 56.889h-85.333c-15.73 0-28.444 12.743-28.444 28.444 0 15.73 12.743 28.444 28.444 28.444h142.222c31.403 0 56.889-25.486 56.889-56.889v-597.333c0-31.403-25.486-56.889-56.889-56.889zM654.222 106.667v682.667c0 31.431-25.486 56.889-56.889 56.889h-170.667c-31.403 0-56.889-25.458-56.889-56.889v-739.556h284.444v56.889zM440.889 163.556h142.222c7.851 0 14.222-6.372 14.222-14.222v-28.444c0-7.851-6.372-14.222-14.222-14.222h-142.222c-7.851 0-14.222 6.372-14.222 14.222v28.444c0 7.851 6.372 14.222 14.222 14.222zM440.889 277.333h142.222c7.851 0 14.222-6.372 14.222-14.222v-28.444c0-7.851-6.372-14.222-14.222-14.222h-142.222c-7.851 0-14.222 6.372-14.222 14.222v28.444c0 7.851 6.372 14.222 14.222 14.222zM156.444 163.556h85.333c7.851 0 14.222-6.372 14.222-14.222v-28.444c0-7.851-6.372-14.222-14.222-14.222h-85.333c-7.851 0-14.222 6.372-14.222 14.222v28.444c0 7.851 6.372 14.222 14.222 14.222zM184.889 277.333h56.889c7.851 0 14.222-6.372 14.222-14.222v-28.444c0-7.851-6.372-14.222-14.222-14.222h-56.889c-7.851 0-14.222 6.372-14.222 14.222v28.444c0 7.851 6.372 14.222 14.222 14.222zM782.222 163.556h85.333c7.851 0 14.222-6.372 14.222-14.222v-28.444c0-7.851-6.372-14.222-14.222-14.222h-85.333c-7.851 0-14.222 6.372-14.222 14.222v28.444c0 7.851 6.372 14.222 14.222 14.222zM782.222 277.333h56.889c7.851 0 14.222-6.372 14.222-14.222v-28.444c0-7.851-6.372-14.222-14.222-14.222h-56.889c-7.851 0-14.222 6.372-14.222 14.222v28.444c0 7.851 6.372 14.222 14.222 14.222z" />
<glyph unicode="&#xe91f;" glyph-name="-10" d="M990.719 472.233h-842.839c-12.197 0-28.838 4.167-39.567 9.939-4.279 2.283-105.337 58.203-105.337 221.228 0 163.027 101.058 218.959 105.363 221.255 10.704 5.735 27.345 9.914 39.542 9.914h842.839c23.794 0 30.044-16.151 31.399-21.107 1.357-4.945 4.194-22.037-16.286-34.133-1.007-0.603-108.227-66.034-109.984-176.341-1.758-109.554 108.575-174.886 109.678-175.539 20.659-11.92 17.948-29.063 16.615-34.032-1.33-4.969-7.527-21.183-31.423-21.183zM147.88 883.168c-3.803 0-11.934-2.033-15.272-3.827-3.037-1.695-78.232-45.152-78.232-175.941 0-130.799 75.195-174.243 78.394-176.027 3.175-1.706 11.307-3.739 15.109-3.739h779.166c-38.603 36.694-83.931 97.556-82.599 180.182 1.329 82.272 46.282 142.86 84.030 179.353h-780.596zM3.902-17.385c-1.329 4.969-4.040 22.111 16.615 34.034 1.104 0.651 111.436 65.983 109.68 175.536-1.757 110.308-108.977 175.74-109.981 176.343-20.48 12.095-17.644 29.187-16.288 34.132 1.355 4.969 7.604 21.108 31.398 21.108h842.828c12.2 0 28.839-4.192 39.555-9.914 4.29-2.309 105.364-58.228 105.364-221.267 0-163.014-101.073-218.933-105.34-221.217-10.74-5.772-27.379-9.939-39.578-9.939h-842.829c-23.894 0.001-30.093 16.215-31.424 21.184zM97.571 372.367c37.748-36.493 82.698-97.081 84.029-179.354 1.33-82.623-43.998-143.488-82.599-180.182h779.154c3.815 0 11.946 2.033 15.109 3.739 3.214 1.783 78.408 45.228 78.408 176.016 0 130.812-75.194 174.257-78.232 175.941-3.339 1.806-11.47 3.839-15.285 3.839h-780.583z" />
<glyph unicode="&#xe920;" glyph-name="12" d="M753.404 24.667l-241.904 209.187-241.904-209.187v846.666h483.809v-846.666z" />
<glyph unicode="&#xe921;" glyph-name="13" d="M753.404 24.667l-241.904 209.187-241.904-209.187v846.666h483.809v-846.666z" />
<glyph unicode="&#xe922;" glyph-name="14" d="M200.192 361.088c19.52-21.888 41.344-41.6 65.024-58.88l-29.12-50.432c-5.077-8.579-8.077-18.908-8.077-29.937 0-21.998 11.933-41.208 29.68-51.511l0.285-0.153c8.582-5.072 18.911-8.069 29.941-8.069 21.979 0 41.179 11.901 51.507 29.61l0.153 0.283 29.952 51.84c0.284 0.458 0.709 1.211 1.119 1.975l0.161 0.329c26.112-9.408 53.44-16.256 81.536-20.224-0.082-1.184-0.129-2.566-0.129-3.958 0-0.093 0-0.187 0.001-0.28v0.014-59.84c0-33.28 26.752-59.712 59.776-59.712 33.28 0 59.776 26.688 59.776 59.712v59.84c0 0.075 0.001 0.163 0.001 0.252 0 1.397-0.047 2.784-0.138 4.158l0.010-0.186c28.16 3.968 55.424 10.88 81.536 20.224 0.57-1.090 0.995-1.844 1.435-2.587l-0.155 0.283 29.952-51.84c10.468-17.977 29.65-29.869 51.608-29.869 11.051 0 21.399 3.012 30.268 8.26l-0.276-0.151c28.8 16.576 38.4 52.992 21.888 81.536l-29.12 50.432c23.68 17.28 45.44 36.992 65.024 58.88l46.528-26.88c8.579-5.077 18.908-8.077 29.937-8.077 21.998 0 41.208 11.933 51.511 29.68l0.153 0.285c5.072 8.582 8.069 18.911 8.069 29.941 0 21.979-11.901 41.179-29.61 51.507l-0.283 0.153-39.936 23.040c15.421 31.72 27.382 68.531 34.017 107.163l0.351 2.469c0.635 3.27 0.998 7.030 0.998 10.875 0 33.013-26.763 59.776-59.776 59.776-29.872 0-54.627-21.912-59.067-50.54l-0.043-0.335c-24.813-142.138-147.277-248.809-294.656-248.809s-269.843 106.672-294.397 247.019l-0.259 1.79c-4.666 28.762-29.322 50.455-59.045 50.455-33.013 0-59.776-26.763-59.776-59.776 0-3.718 0.339-7.356 0.989-10.886l-0.056 0.367c6.464-38.656 18.176-75.392 34.368-109.504l-39.936-23.040c-17.993-10.465-29.897-29.654-29.897-51.624 0-11.071 3.023-21.436 8.288-30.315l-0.151 0.275c16.576-28.8 52.992-38.4 81.536-21.888l46.528 26.88z" />
<glyph unicode="&#xe923;" glyph-name="5" horiz-adv-x="1025" d="M365.107 229.786c-201.327 0-365.107 163.78-365.107 365.107s163.78 365.107 365.107 365.107 365.107-163.78 365.107-365.121-163.78-365.093-365.107-365.093zM365.107 903.831c-170.344 0-308.938-138.594-308.938-308.938s138.594-308.938 308.938-308.938 308.938 138.594 308.938 308.923-138.594 308.952-308.938 308.952zM997.903-64c-0.012 0-0.025 0-0.039 0-7.767 0-14.795 3.162-19.868 8.268l-0.001 0.001-393.676 393.257c-5.091 5.084-8.24 12.11-8.24 19.872 0 15.51 12.573 28.083 28.083 28.083 7.748 0 14.763-3.138 19.844-8.211l393.676-393.256c5.084-5.084 8.229-12.107 8.229-19.865 0-15.505-12.562-28.077-28.064-28.092h-0.001z" />
<glyph unicode="&#xe924;" glyph-name="--2" d="M961.723-69.297h-901.775c-18.641 0-37.283 9.321-48.934 23.302-11.651 16.311-16.311 34.953-11.651 53.594 46.603 237.677 240.007 414.77 473.024 433.411 78.061 0 162.529-9.903 246.998-44.273 24.467-9.903 32.622-16.311 46.603-23.302 135.15-76.896 228.357-209.715 258.649-365.837 4.66-18.641 0-37.283-13.981-53.594-11.651-13.981-30.292-23.302-48.934-23.302zM61.112-31.432c-7.573 0-14.564 2.913-18.641 8.156-0.583 0.583-0.583 1.165-1.165 1.748-5.825 5.825-6.408 15.729-5.243 21.554 43.108 221.366 224.279 387.391 440.984 403.119h17.476c104.275 0 204.472-32.622 253.406-63.497 128.159-76.896 213.793-197.482 240.59-339.622 1.165-8.156-0.583-15.729-6.408-23.302-4.078-5.243-11.068-8.156-18.641-8.156h-902.358zM494.524 389.163c101.362 0 198.647-31.457 245.833-61.167h0.583c124.664-73.983 207.385-191.074 233.017-329.719 0.583-2.913 0.583-6.991-4.078-12.233-0.583-1.165-3.495-2.33-6.991-2.33h-901.775c-3.495 0-6.408 1.165-6.991 2.33s-1.748 2.33-2.913 2.913c-1.165 1.165-2.33 4.66-1.165 8.738 41.943 214.958 217.288 375.74 427.586 391.468 5.243-0.583 11.068 0 16.894 0zM494.524 418.29c-5.825 0-12.233 0-18.059-0.583-223.696-16.311-410.11-186.414-454.383-414.77-2.33-11.651 0-25.632 9.321-34.953 6.991-9.321 18.641-13.981 30.292-13.981h901.775c11.651 0 23.302 4.66 30.292 13.981s11.651 20.972 9.321 34.953c-27.962 149.131-116.508 271.465-246.998 349.525-49.516 30.875-150.878 65.827-261.561 65.827zM512 420.038c-146.801 0-267.969 121.169-267.969 267.969s121.169 267.969 267.969 267.969 267.969-121.169 267.969-267.969-121.169-267.969-267.969-267.969zM512 457.903c-126.994 0-230.104 103.11-230.104 230.104s103.11 230.104 230.104 230.104 230.104-103.11 230.104-230.104-103.11-230.104-230.104-230.104zM512 903.548c118.839 0 215.541-96.702 215.541-215.541s-96.702-215.541-215.541-215.541-215.541 96.702-215.541 215.541 96.702 215.541 215.541 215.541zM512 932.675c-135.15 0-244.668-109.518-244.668-244.668s109.518-244.668 244.668-244.668 244.668 109.518 244.668 244.668-109.518 244.668-244.668 244.668z" />
<glyph unicode="&#xe925;" glyph-name="--3" d="M933.615-36.966h-845.414c-17.476 0-34.953 8.738-45.875 21.845-10.923 15.292-15.292 32.768-10.923 50.244 43.691 222.822 225.007 388.847 443.46 406.323 73.182 0 152.371-9.284 231.561-41.506 22.938-9.284 30.583-15.292 43.691-21.845 126.703-72.090 214.084-196.608 242.483-342.972 4.369-17.476 0-34.953-13.107-50.244-10.923-13.107-28.399-21.845-45.875-21.845zM89.293-1.468c-7.1 0-13.653 2.731-17.476 7.646-0.546 0.546-0.546 1.092-1.092 1.638-5.461 5.461-6.007 14.746-4.915 20.207 40.414 207.531 210.261 363.179 413.423 377.924h16.384c97.758 0 191.693-30.583 237.568-59.529 120.149-72.090 200.431-185.139 225.553-318.396 1.092-7.646-0.546-14.746-6.007-21.845-3.823-4.915-10.377-7.646-17.476-7.646h-845.961zM495.616 392.841c95.027 0 186.231-29.491 230.468-57.344h0.546c116.873-69.359 194.423-179.132 218.453-309.111 0.546-2.731 0.546-6.554-3.823-11.469-0.546-1.092-3.277-2.185-6.554-2.185h-845.414c-3.277 0-6.007 1.092-6.554 2.185s-1.638 2.185-2.731 2.731c-1.092 1.092-2.185 4.369-1.092 8.192 39.322 201.523 203.708 352.256 400.862 367.002 4.915-0.546 10.377 0 15.838 0zM495.616 420.147c-5.461 0-11.469 0-16.93-0.546-209.715-15.292-384.478-174.763-425.984-388.847-2.185-10.923 0-24.030 8.738-32.768 6.554-8.738 17.476-13.107 28.399-13.107h845.414c10.923 0 21.845 4.369 28.399 13.107s10.923 19.661 8.738 32.768c-26.214 139.81-109.227 254.498-231.561 327.68-46.421 28.945-141.449 61.713-245.214 61.713zM512 421.786c-137.626 0-251.221 113.596-251.221 251.221s113.596 251.221 251.221 251.221 251.221-113.596 251.221-251.221-113.596-251.221-251.221-251.221zM512 457.284c-119.057 0-215.723 96.666-215.723 215.723s96.666 215.723 215.723 215.723 215.723-96.666 215.723-215.723-96.666-215.723-215.723-215.723zM512 875.076c111.411 0 202.069-90.658 202.069-202.069s-90.658-202.069-202.069-202.069-202.069 90.658-202.069 202.069 90.658 202.069 202.069 202.069zM512 902.383c-126.703 0-229.376-102.673-229.376-229.376s102.673-229.376 229.376-229.376 229.376 102.673 229.376 229.376-102.673 229.376-229.376 229.376z" />
<glyph unicode="&#xe926;" glyph-name="-11" d="M1016.83 15.872c0-21.504-17.408-38.912-38.912-38.912s-38.912 17.408-38.912 38.912v20.992c0 97.28-198.144 235.008-425.472 235.008-180.736 0-428.544-115.712-428.544-230.912v-25.088c0-21.504-17.408-38.912-38.912-38.912s-38.912 17.408-38.912 38.912v48.64c0 58.368 86.528 207.872 322.56 263.168-84.992 58.368-141.312 156.16-141.312 267.264 0 178.688 144.896 323.584 323.584 323.584s323.584-144.896 323.584-323.584c0-109.056-54.272-205.312-137.216-264.192 238.592-53.248 318.464-210.432 318.464-266.24v-48.64zM757.76 595.456c0 135.68-110.080 245.76-245.76 245.76s-245.76-110.080-245.76-245.76 110.080-245.76 245.76-245.76 245.76 110.080 245.76 245.76z" />
<glyph unicode="&#xe927;" glyph-name="15" d="M801.861 437.142l-344.66 371.269h-159.019l344.66-371.269-344.66-344.646h159.020l344.66 344.646z" />
<glyph unicode="&#xe928;" glyph-name="16" d="M250.056 472.323l367.638-396.020h169.62l-367.636 396.019 367.638 367.622h-169.62l-367.638-367.622z" />
<glyph unicode="&#xe929;" glyph-name="17" d="M760.832-48.64c-8.192 0-16.384 3.072-23.552 8.704l-499.712 463.36c-14.336 13.824-14.336 37.376 0 51.712l499.712 463.36c14.336 12.8 37.376 11.776 50.176-3.584 12.8-14.848 11.264-36.864-3.584-50.176l-464.896-435.2 464.384-435.712c14.848-12.8 16.384-35.328 3.584-50.176-6.144-8.192-15.872-12.288-26.112-12.288z" />
<glyph unicode="&#xe92a;" glyph-name="6" horiz-adv-x="1277" d="M807.067 446.279c0.051 0.734 0.079 1.59 0.079 2.453s-0.029 1.72-0.086 2.568l0.006-0.115c0.219 1.541 0.345 3.321 0.345 5.13s-0.125 3.589-0.367 5.331l0.023-0.201v2.676c-1.935 4.85-4.653 9-8.039 12.5l0.010-0.010-164.592 161.023c-6.782 5.744-15.631 9.237-25.295 9.237-21.678 0-39.252-17.574-39.252-39.252 0-9.664 3.493-18.513 9.284-25.352l-0.047 0.057 94.116-95.008h-629.82c-1.254 0.142-2.706 0.223-4.178 0.223-21.678 0-39.252-17.574-39.252-39.252s17.574-39.252 39.252-39.252c1.472 0 2.925 0.081 4.355 0.239l-0.176-0.016h629.82l-94.116-94.116c-8.56-7.247-13.958-18.001-13.958-30.015 0-21.678 17.574-39.252 39.252-39.252 12.014 0 22.768 5.398 29.968 13.9l0.047 0.057 161.023 161.023c1.627 1.956 3.107 4.148 4.358 6.481l0.103 0.21c1.462 2.565 2.683 5.532 3.51 8.66l0.059 0.261c1.514 2.827 2.743 6.103 3.519 9.551l0.050 0.262zM1277.202 586.339c0.001 0.257 0.002 0.561 0.002 0.866 0 48.578-16.808 93.229-44.926 128.457l0.32-0.414c-32.45 33.327-77.751 54.002-127.882 54.002-1.145 0-2.288-0.011-3.428-0.032l0.171 0.003c-4.634-0.49-10.011-0.769-15.454-0.769-65.711 0-121.913 40.714-144.755 98.293l-0.368 1.053c-44.605 102.591-99.023 91.886-99.023 91.886h-504.035c-68.046-0.253-123.109-55.474-123.109-123.555 0 0 0 0 0-0.001v0-267.629h79.843v257.37c-0.017 0.532-0.027 1.158-0.027 1.786 0 32.863 26.522 59.531 59.329 59.769h482.201c84.303-229.715 272.982-202.060 272.982-202.060 49.622-6.887 87.64-48.285 89.206-98.865l0.004-0.158v-508.495c0-33.010-26.76-59.77-59.77-59.77h-784.599c-33.010 0-59.77 26.76-59.77 59.77v251.571h-79.397v-269.859c0.253-67.89 55.22-122.857 123.085-123.109h816.293c67.89 0.253 122.857 55.22 123.109 123.085v526.807z" />
<glyph unicode="&#xe92b;" glyph-name="7" d="M845.1 824.5c-5.6 4.6-12.7 7.1-20 7.1-9.6 0-18.5-4.2-24.6-11.7-5.4-6.5-7.9-14.7-7-23.2s5-16 11.5-21.4c57.7-47 90.7-116.5 90.7-190.7 0-74.3-33.1-143.8-90.8-190.7-6.6-5.4-10.6-12.9-11.5-21.4-0.9-8.4 1.6-16.7 7-23.2 5.5-6.7 13.5-10.9 22.1-11.6l0.1-0.3h2.5c7.2 0 14.2 2.5 20 7.1 72.6 59.1 114.2 146.6 114.2 239.9 0 93.6-41.6 181.1-114.2 240.1zM740.2 695.3c-5.6 4.6-12.7 7.1-20 7.1-9.6 0-18.5-4.2-24.6-11.7-5.4-6.5-7.9-14.7-7-23.2s5-16 11.5-21.4c18.6-15.1 29.2-37.5 29.2-61.5 0-23.9-10.6-46.4-29.2-61.5-13.5-11-15.6-31-4.6-44.6 5.2-6.4 12.6-10.4 20.6-11.4v-0.4h4c7.4 0 14.2 2.5 20 7.1 33.5 27.2 52.7 67.6 52.7 110.7 0.1 43.3-19.1 83.5-52.6 110.8zM309.4 94v54.7c-125.7 12.7-245.2 111.3-245.2 229.2v71.5c0 14.4 12.4 26 27.7 26 15.2 0 27.2-11.6 27.2-26v-71.5c0-97.8 112.7-178.7 217.4-178.7 104.6 0 218.7 80.8 218.7 178.7v71.5c0 14.4 10.6 26 26 26 15.2 0 27.7-11.6 27.7-26v-71.5c0-118-119.5-216.5-245.1-229.3v-54.7h54c15.2 0 27.6-12.2 27.6-27.2s-12.4-27.2-27.6-27.2h-162.5c-7.2 0-14.2 2.7-19.5 7.9-5.2 5.1-8.1 12.1-8.2 19.4 0 15 12.4 27.2 27.6 27.2h54.2zM336.6 257.5c-90.1 0-163.4 71.6-163.4 159.6v279.9c0 88.1 73.3 159.6 163.4 159.6s163.4-71.6 163.4-159.6v-280c0-88.1-73.3-159.5-163.4-159.5zM336.6 802.1c-60.1 0-109-47-109-104.7v-280.8c0-57.7 48.9-104.7 109-104.7s109 47 109 104.7v280.8c0 57.7-48.9 104.7-109 104.7z" />
<glyph unicode="&#xe92c;" d="M263.129 374.515h118.852v43.174h-118.852v90.236h140.488v42.775h-191.639v-324.15h196.425v43.174h-145.274zM598.646 474.921c-33.003 0-57.731-18.047-80.165-39.684h-1.296l-3.988 33.502h-41.379v-242.19h50.253v171.697c21.537 21.537 36.992 33.003 59.426 33.003 28.616 0 40.98-16.751 40.98-58.529v-146.172h50.652v152.354c0 61.619-22.933 96.019-74.482 96.019z" />
<glyph unicode="&#xe92d;" d="M904.251 863.383h-671.034c-65.010 0-118.154-53.144-118.154-118.154v-25.824c-62.816-2.493-113.567-54.64-113.567-118.054v-423.759c0-65.010 53.144-118.154 118.154-118.154h638.629c65.010 0 118.154 53.144 118.154 118.154v35.795h27.819c65.010 0 118.154 53.144 118.154 118.154v413.688c0 64.91-53.144 118.154-118.154 118.154zM381.981 417.689v-43.174h-118.852v-104.793h145.374v-43.174h-196.425v324.15h191.539v-42.675h-140.488v-90.335h118.852zM673.128 226.549h-50.652v146.172c0 41.877-12.364 58.529-40.98 58.529-22.434 0-37.889-11.466-59.426-33.003v-171.797h-50.253v242.29h41.379l3.988-33.502h1.296c22.434 21.537 47.162 39.684 80.165 39.684 51.549 0 74.382-34.399 74.382-96.019l0.1-152.354zM978.533 331.441c0-19.742-7.777-38.288-21.836-52.446-14.059-14.059-32.704-21.836-52.446-21.836h-27.819v344.092c0 65.010-53.144 118.154-118.154 118.154h-599.344v25.725c0 19.742 7.777 38.288 21.836 52.446 14.059 14.059 32.704 21.836 52.446 21.836h671.034c19.742 0 38.288-7.777 52.446-21.836 14.059-14.059 21.836-32.704 21.836-52.446v-413.688z" />
<glyph unicode="&#xe92e;" glyph-name="-12" d="M904.192 863.232h-670.72c-65.024 0-118.272-53.248-118.272-118.272v-25.6c-62.976-2.56-113.664-54.784-113.664-117.76v-423.936c0-65.024 53.248-118.272 118.272-118.272h638.464c65.024 0 118.272 53.248 118.272 118.272v35.84h27.648c65.024 0 118.272 53.248 118.272 118.272v413.696c0 64.512-53.248 117.76-118.272 117.76zM312.832 266.752c47.616 0 68.608 27.136 80.384 57.344h40.96c-13.824-52.224-52.736-91.648-122.88-91.648-92.672 0-139.264 70.144-139.264 157.696 0 83.968 46.592 159.744 140.8 159.744 72.704 0 112.64-41.472 121.344-93.184h-40.96c-11.264 33.792-33.28 58.88-82.432 58.88-68.096 0-95.744-61.952-95.744-124.416 0-60.416 26.112-124.416 97.792-124.416zM666.624 236.544h-38.912v139.776c0 33.792-13.312 56.832-47.616 56.832-42.496 0-59.392-32.256-59.392-77.824v-119.296h-38.912v168.448c0 19.456 0 39.424-0.512 56.832h37.888c1.024-6.656 1.536-30.208 1.536-36.864 9.216 19.456 27.136 42.496 70.656 42.496 41.984 0 75.264-25.6 75.264-85.504v-144.896zM978.432 331.264c0-19.968-7.68-38.4-22.016-52.224-13.824-13.824-32.768-22.016-52.224-22.016h-27.648v344.064c0 65.024-53.248 118.272-118.272 118.272h-599.552v25.6c0 19.968 7.68 38.4 22.016 52.224 13.824 13.824 32.768 22.016 52.224 22.016h671.232c19.968 0 38.4-7.68 52.224-22.016 13.824-13.824 22.016-32.768 22.016-52.224v-413.696z" />
<glyph unicode="&#xe92f;" glyph-name="18" d="M875 669.5l-486.9-486.9c-0.7-0.7-1.5-1.2-2.3-1.9-0.6-0.8-1.2-1.6-1.9-2.3-13.8-13.8-36.3-13.8-50.1 0l-186.2 186.1c-13.8 13.8-13.8 36.3 0 50.1s36.3 13.8 50.1 0l161.1-161.1 466.1 466.1c13.8 13.8 36.3 13.8 50.1 0s13.8-36.3 0-50.1z" />
<glyph unicode="&#xe930;" glyph-name="-011" d="M938.667-38.4h-315.733c-31.289 0-56.889 25.6-56.889 56.889v318.578c0 31.289 25.6 56.889 56.889 56.889h315.733c31.289 0 56.889-25.6 56.889-56.889v-315.733c0-34.133-25.6-59.733-56.889-59.733zM622.933 337.067v-315.733h315.733v315.733h-315.733zM622.933 365.511v0zM401.067-38.4h-315.733c-31.289 0-56.889 25.6-56.889 56.889v318.578c0 31.289 25.6 56.889 56.889 56.889h315.733c31.289 0 56.889-25.6 56.889-56.889v-315.733c0-34.133-25.6-59.733-56.889-59.733zM85.333 337.067v-315.733h315.733v315.733h-315.733zM938.667 473.6h-315.733c-31.289 0-56.889 25.6-56.889 56.889v315.733c0 31.289 25.6 56.889 56.889 56.889h315.733c31.289 0 56.889-25.6 56.889-56.889v-315.733c0-31.289-25.6-56.889-56.889-56.889zM622.933 846.222v-315.733h315.733v315.733h-315.733zM401.067 473.6h-315.733c-31.289 0-56.889 25.6-56.889 56.889v315.733c0 31.289 25.6 56.889 56.889 56.889h315.733c31.289 0 56.889-25.6 56.889-56.889v-315.733c0-31.289-25.6-56.889-56.889-56.889zM85.333 846.222v-315.733h315.733v315.733h-315.733z" />
<glyph unicode="&#xe931;" glyph-name="-012" d="M950.044 504.889h-679.822c-116.622 0-213.333 96.711-213.333 213.333s96.711 213.333 213.333 213.333h696.889v-45.511l-14.222-11.378c-51.2-31.289-85.333-91.022-85.333-159.289s31.289-125.156 85.333-159.289l14.222-8.533v-45.511l-17.067 2.844zM270.222 874.667c-85.333 0-156.444-71.111-156.444-156.444s71.111-156.444 156.444-156.444h597.333c-34.133 42.667-54.044 96.711-54.044 156.444s19.911 113.778 54.044 156.444h-597.333zM753.778-35.556h-696.889v48.356l11.378 8.533c45.511 34.133 73.956 91.022 73.956 156.444s-28.444 122.311-73.956 156.444l-11.378 8.533v48.356h696.889c116.622 0 213.333-96.711 213.333-213.333s-96.711-213.333-213.333-213.333zM147.911 21.333h605.867c85.333 0 156.444 71.111 156.444 156.444s-71.111 156.444-156.444 156.444h-605.867c34.133-42.667 51.2-96.711 51.2-156.444s-17.067-113.778-51.2-156.444z" />
<glyph unicode="&#xe932;" glyph-name="_-01" d="M895 829.7h-572.9c-35.3 0-64.2-28.9-64.2-64.2s28.9-64.2 64.2-64.2h572.9c35.3 0 64.2 28.9 64.2 64.2s-28.9 64.2-64.2 64.2zM895 543.3h-572.9c-35.3 0-64.2-28.9-64.2-64.2s28.9-64.2 64.2-64.2h572.9c35.3 0 64.2 28.9 64.2 64.2s-28.9 64.2-64.2 64.2zM895 254.4h-572.9c-35.3 0-64.2-28.9-64.2-64.2s28.9-64.2 64.2-64.2h572.9c35.3 0 64.2 28.9 64.2 64.2s-28.9 64.2-64.2 64.2zM128.7 828.7c-34.9 0-63.3-28.5-63.3-63.3v-1.8c0-34.9 28.5-63.3 63.3-63.3 34.9 0 63.3 28.5 63.3 63.3v1.8c0 34.7-28.5 63.3-63.3 63.3zM128.7 542.3c-34.9 0-63.3-28.5-63.3-63.3v-1.8c0-34.9 28.5-63.3 63.3-63.3 34.9 0 63.3 28.5 63.3 63.3v1.8c0 34.8-28.5 63.3-63.3 63.3zM128.7 253.4c-34.9 0-63.3-28.5-63.3-63.3v-1.8c0-34.9 28.5-63.3 63.3-63.3 34.9 0 63.3 28.5 63.3 63.3v1.8c0 34.8-28.5 63.3-63.3 63.3z" />
<glyph unicode="&#xe933;" glyph-name="_" d="M327.509 768l-235.179-594.944h46.421l75.093 193.024h276.992l75.093-193.024h46.421l-234.325 594.944h-50.517zM477.355 403.285h-250.027l86.187 219.648c6.997 18.091 13.653 35.669 20.139 53.248 6.315 17.408 12.8 35.669 19.285 54.443 6.827-17.749 13.312-35.328 19.797-53.077 6.485-17.579 13.141-35.328 19.797-52.907l84.821-221.355zM667.136 468.139h276.48v-40.448h-276.48z" />
<glyph unicode="&#xe934;" glyph-name="_1" d="M327.509 768l-235.179-594.944h46.421l75.093 193.024h276.992l75.093-193.024h46.421l-234.325 594.944h-50.517zM477.355 403.285h-250.027l86.187 219.648c6.997 18.091 13.653 35.669 20.139 53.248 6.315 17.408 12.8 35.669 19.285 54.443 6.827-17.749 13.312-35.328 19.797-53.077 6.485-17.579 13.141-35.328 19.797-52.907l84.821-221.355zM825.515 468.139v118.101h-40.448v-118.101h-117.931v-40.277h117.931v-118.101h40.448v118.101h118.101v40.277z" />
<glyph unicode="&#xe935;" glyph-name="---40" d="M896 524.8h-256v-51.2h256v-409.6h-768v409.6h256v51.2h-256c-28.16 0-51.2-23.040-51.2-51.2v-409.6c0-28.16 23.040-51.2 51.2-51.2h768c28.16 0 51.2 23.040 51.2 51.2v409.6c0 28.16-23.040 51.2-51.2 51.2zM358.4 680.96l128 128v-614.4h51.2v611.84l128-128v-2.56l38.4 38.4-151.040 151.040c-12.8 12.8-28.16 17.92-40.96 17.92s-28.16-5.12-38.4-15.36l-151.040-151.040 35.84-35.84c0-2.56 0-2.56 0 0z" />
<glyph unicode="&#xe936;" glyph-name="-013" d="M112 192h800c27.2 0 48-20.8 48-48s-20.8-48-48-48h-800c-27.2 0-48 20.8-48 48s20.8 48 48 48zM112 496h800c27.2 0 48-20.8 48-48s-20.8-48-48-48h-800c-27.2 0-48 20.8-48 48s20.8 48 48 48zM112 800h800c27.2 0 48-20.8 48-48s-20.8-48-48-48h-800c-27.2 0-48 20.8-48 48s20.8 48 48 48z" />
<glyph unicode="&#xe937;" glyph-name="-13" d="M658.133 421.355l-331.883-331.861c-3.86-3.86-6.247-9.193-6.247-15.083 0-11.78 9.55-21.33 21.33-21.33 5.89 0 11.223 2.387 15.083 6.247l345.408 345.387c0.597 0.469 1.323 0.683 1.856 1.237 3.864 3.858 6.255 9.191 6.255 15.083s-2.391 11.225-6.255 15.082v0l-346.965 346.965c-3.847 3.879-9.179 6.28-15.072 6.28s-11.225-2.401-15.071-6.278l-0.001-0.001c-3.864-3.858-6.255-9.191-6.255-15.083s2.391-11.225 6.255-15.082v0l331.563-331.563z" />
<glyph unicode="&#xe938;" glyph-name="-14" d="M256 533.333c-47.061 0-85.333-38.272-85.333-85.333s38.272-85.333 85.333-85.333 85.333 38.272 85.333 85.333-38.272 85.333-85.333 85.333zM256 405.333c-23.531 0-42.667 19.136-42.667 42.667s19.136 42.667 42.667 42.667 42.667-19.136 42.667-42.667-19.136-42.667-42.667-42.667zM522.667 533.333c-47.061 0-85.333-38.272-85.333-85.333s38.272-85.333 85.333-85.333 85.333 38.272 85.333 85.333-38.272 85.333-85.333 85.333zM522.667 405.333c-23.531 0-42.667 19.136-42.667 42.667s19.136 42.667 42.667 42.667 42.667-19.136 42.667-42.667-19.136-42.667-42.667-42.667zM789.333 533.333c-47.061 0-85.333-38.272-85.333-85.333s38.272-85.333 85.333-85.333 85.333 38.272 85.333 85.333-38.272 85.333-85.333 85.333zM789.333 405.333c-23.531 0-42.667 19.136-42.667 42.667s19.136 42.667 42.667 42.667 42.667-19.136 42.667-42.667-19.136-42.667-42.667-42.667z" />
<glyph unicode="&#xe939;" glyph-name="-3" d="M513.621 621.909c-95.158 0-172.299-77.141-172.299-172.299s77.141-172.299 172.299-172.299v0c95.158 0 172.299 77.141 172.299 172.299s-77.141 172.299-172.299 172.299v0zM513.621 320c-71.467 0-129.621 58.155-129.621 129.621s58.155 129.621 129.621 129.621 129.621-58.155 129.621-129.621-58.155-129.621-129.621-129.621zM515.221 661.781c11.782 0 21.333 9.551 21.333 21.333v84.885c0 11.782-9.551 21.333-21.333 21.333s-21.333-9.551-21.333-21.333v0-84.885c0-11.782 9.551-21.333 21.333-21.333v0zM334.571 600.789c3.853-3.875 9.188-6.273 15.083-6.273s11.229 2.398 15.082 6.272l0.001 0.001c3.864 3.858 6.255 9.191 6.255 15.083s-2.391 11.225-6.255 15.082v0l-60.011 60.011c-3.86 3.86-9.193 6.247-15.083 6.247-11.78 0-21.33-9.55-21.33-21.33 0-5.89 2.387-11.223 6.247-15.083l60.011-60.011zM301.461 451.221c0 11.782-9.551 21.333-21.333 21.333h-84.907c-11.782 0-21.333-9.551-21.333-21.333s9.551-21.333 21.333-21.333v0h84.885c0.006 0 0.014 0 0.021 0 11.782 0 21.333 9.551 21.333 21.333v0zM332.288 300.736l-60.011-60.011c-3.86-3.86-6.247-9.193-6.247-15.083 0-11.78 9.55-21.33 21.33-21.33 5.89 0 11.223 2.387 15.083 6.247l60.011 60.011c3.86 3.86 6.247 9.193 6.247 15.083 0 11.78-9.55 21.33-21.33 21.33-5.89 0-11.223-2.387-15.083-6.247v0zM512 237.461c-11.782 0-21.333-9.551-21.333-21.333v0-84.885c0-11.782 9.551-21.333 21.333-21.333s21.333 9.551 21.333 21.333v0 84.885c0 11.782-9.551 21.333-21.333 21.333v0zM692.672 298.453c-3.86 3.86-9.193 6.247-15.083 6.247-11.78 0-21.33-9.55-21.33-21.33 0-5.89 2.387-11.223 6.247-15.083l60.011-60.011c3.853-3.875 9.188-6.273 15.083-6.273s11.229 2.398 15.082 6.272l0.001 0.001c3.864 3.858 6.255 9.191 6.255 15.083s-2.391 11.225-6.255 15.082v0l-60.011 60.011zM832 469.333h-84.885c-11.782 0-21.333-9.551-21.333-21.333s9.551-21.333 21.333-21.333v0h84.885c11.782 0 21.333 9.551 21.333 21.333s-9.551 21.333-21.333 21.333v0zM679.872 592.256c0.007 0 0.014 0 0.022 0 5.884 0 11.21 2.389 15.060 6.25v0l60.011 60.011c3.86 3.86 6.247 9.193 6.247 15.083 0 11.78-9.55 21.33-21.33 21.33-5.89 0-11.223-2.387-15.083-6.247l-60.011-60.011c-3.877-3.86-6.276-9.202-6.276-15.104 0-11.77 9.542-21.312 21.312-21.312 0.017 0 0.033 0 0.050 0h-0.003z" />
<glyph unicode="&#xe93a;" glyph-name="-4" d="M768 810.667c23.531 0 42.667-19.136 42.667-42.667v-640c0-23.467-19.051-42.581-42.688-42.581h-0.171l-1.899 2.517-2.261 2.219-173.12 169.536c-15.381 15.061-35.691 23.339-57.195 23.339s-41.835-8.299-57.195-23.339l-175.573-171.84-1.899-2.517c-23.531 0-42.667 19.136-42.667 42.667v640c0 23.531 19.136 42.667 42.667 42.667h469.333zM768 853.333h-469.333c-47.128 0-85.333-38.205-85.333-85.333v0-640c0-47.128 38.205-85.333 85.333-85.333v0c13.44 0 26.091 6.293 34.219 17.003l173.12 169.536c7.595 7.445 17.472 11.157 27.349 11.157s19.755-3.712 27.349-11.157l173.12-169.536c8.085-10.709 20.736-17.003 34.176-17.003 47.128 0 85.333 38.205 85.333 85.333v0 640c0 47.128-38.205 85.333-85.333 85.333v0z" />
<glyph unicode="&#xe93b;" glyph-name="-5" d="M917.333 469.333h-42.667v10.667c0 185.28-156.053 330.667-341.333 330.667h-10.667c-185.28 0-330.667-145.387-330.667-330.667v-10.667h-42.667c-58.816 0-106.667-47.851-106.667-106.667v-128c0-58.816 47.851-106.667 106.667-106.667h85.333v352c0 161.749 131.584 293.333 293.333 293.333h10.667c161.749 0 293.333-131.584 293.333-293.333v-352h85.333c58.816 0 106.667 47.851 106.667 106.667v128c0 58.816-47.851 106.667-106.667 106.667zM192 170.667h-42.667c-35.285 0-64 28.715-64 64v128c0 35.285 28.715 64 64 64h42.667v-256zM981.333 234.667c0-35.285-28.715-64-64-64h-42.667v256h42.667c35.285 0 64-28.715 64-64v-128z" />
<glyph unicode="&#xe93c;" glyph-name="-15" d="M782.763 830.293c108.395-92.8 165.611-229.845 154.56-374.869-17.109-224.128-199.531-401.344-424.363-412.203-7.467-0.384-14.891-0.555-22.293-0.555-144.405 0-279.936 70.443-363.584 186.432 38.645-10.038 83.011-15.801 128.722-15.801 10.553 0 21.034 0.307 31.435 0.913l-1.437-0.067c259.584 14.229 474.88 219.776 500.8 478.101 1.742 16.25 2.736 35.103 2.736 54.188 0 29.605-2.391 58.652-6.991 86.958l0.415-3.098zM757.035 897.6c-15.445 0-29.291-14.699-24.917-32.213 13.312-53.355 17.941-110.144 12.032-168.875-23.872-237.931-221.931-426.667-460.672-439.765-8.288-0.501-17.978-0.787-27.735-0.787-56.922 0-111.571 9.727-162.378 27.608l3.425-1.050c-2.618 0.939-5.639 1.486-8.786 1.493h-0.003c-18.645 0-32.853-20.224-22.528-38.101 84.715-146.944 243.371-245.909 425.195-245.909 8.085 0 16.192 0.192 24.363 0.597 244.352 11.819 446.229 207.637 464.832 451.584 13.909 182.208-71.851 345.301-208.384 440.768-4.014 2.886-9.023 4.625-14.436 4.651h-0.006z" />
<glyph unicode="&#xe93d;" glyph-name="-16" d="M219.541 655.723c-5.588-9.826-15.988-16.345-27.909-16.345-17.673 0-32 14.327-32 32 0 6.26 1.798 12.1 4.905 17.033l44.061 74.535c5.67 9.474 15.876 15.719 27.541 15.723h551.723c11.665-0.004 21.872-6.249 27.461-15.577l0.081-0.145 44.16-74.667c2.796-4.656 4.449-10.273 4.449-16.277 0-17.674-14.327-32.001-32.001-32.001-11.67 0-21.881 6.246-27.471 15.578l-0.081 0.145-34.859 58.944h-515.2l-34.859-58.944zM490.667 768h64v-640h-64zM437.333 149.333h170.667q32 0 32-32v0q0-32-32-32h-170.667q-32 0-32 32v0q0 32 32 32z" />
<glyph unicode="&#xe93e;" glyph-name="-17" d="M512 85.333c200.299 0 362.667 162.368 362.667 362.667s-162.368 362.667-362.667 362.667-362.667-162.368-362.667-362.667 162.368-362.667 362.667-362.667zM512 21.333c-235.648 0-426.667 191.019-426.667 426.667s191.019 426.667 426.667 426.667 426.667-191.019 426.667-426.667-191.019-426.667-426.667-426.667zM585.643 440.789l-116.331 74.773v-149.547l116.331 74.773zM471.061 291.051c-6.523-4.253-14.507-6.783-23.083-6.783-23.564 0-42.667 19.103-42.667 42.667 0 0.007 0 0.014 0 0.022v-0.001 227.691c0.001 23.564 19.103 42.666 42.667 42.666 8.575 0 16.56-2.53 23.247-6.884l-0.165 0.101 177.088-113.835c11.863-7.71 19.599-20.898 19.599-35.893s-7.736-28.184-19.434-35.793l-0.165-0.101-177.088-113.856z" />
<glyph unicode="&#xe93f;" glyph-name="19" horiz-adv-x="1214" d="M1092.546 315.975v0q53.669 0 53.669-53.669v-214.675q0-53.669-53.669-53.669v0q-53.669 0-53.669 53.669v214.675q0 53.669 53.669 53.669zM931.539 137.079c-0.047 0-0.102 0-0.157 0-59.281 0-107.338 48.057-107.338 107.338 0 12.16 2.022 23.848 5.748 34.746l-0.224-0.755c10.459 32.458 35.522 57.521 67.244 67.775l0.737 0.206c9.983 3.387 21.483 5.341 33.438 5.341 31.729 0 60.243-13.767 79.894-35.654l0.088-0.1c0.094-0.001 0.206-0.001 0.317-0.001 33.395 0 60.467 27.072 60.467 60.467 0 22.174-11.936 41.56-29.733 52.085l-0.281 0.154c-31.707 19.145-70 30.473-110.939 30.473-15.316 0-30.261-1.585-44.681-4.601l1.412 0.247c-98.159-21.095-170.667-107.138-170.667-210.116 0-118.562 96.113-214.675 214.675-214.675 118.468 0 214.523 95.962 214.675 214.394v0.015h-107.338c0-59.281-48.057-107.338-107.338-107.338v0zM203.433 419.019h375.681q53.669 0 53.669-53.669v-8.587q0-53.669-53.669-53.669h-375.681q-53.669 0-53.669 53.669v8.587q0 53.669 53.669 53.669zM681.085 262.306c0.169 16.68 1.724 32.874 4.555 48.626l-0.262-1.756-248.665 628.282c-10.71 13.536-27.029 22.229-45.388 22.54l-0.051 0.001c-18.301-0.317-34.508-9.016-44.985-22.413l-0.097-0.128-341.691-862.636c-2.801-6.632-4.428-14.343-4.428-22.433 0-29.623 21.818-54.149 50.26-58.388l0.323-0.040c22.334 1.497 40.587 17.322 45.726 38.296l0.072 0.346 294.82 748.5 294.82-747.069c4.813-21.969 23.347-38.436 45.991-40.063l0.164-0.009c27.791 3.075 49.211 26.428 49.211 54.784 0 1.622-0.070 3.229-0.208 4.815l0.014-0.206c-61.299 49.458-100.182 124.575-100.182 208.774 0 0.062 0 0.124 0 0.186v-0.010z" />
<glyph unicode="&#xe940;" glyph-name="--01" horiz-adv-x="1076" d="M360.065 477.138l401.691 262.244c33.301 20.813 74.927-2.081 74.927-41.626v-524.488c0-39.545-41.626-62.439-74.927-41.626l-401.691 262.244c-29.138 18.732-29.138 64.52 0 83.252zM283.057 102.504h-10.407c-22.894 0-41.626 18.732-41.626 41.626v582.764c0 22.894 18.732 41.626 41.626 41.626h10.407c22.894 0 41.626-18.732 41.626-41.626v-582.764c0-22.894-18.732-41.626-41.626-41.626z" />
<glyph unicode="&#xe941;" glyph-name="--011" horiz-adv-x="1076" d="M663.935 418.862l-401.691-262.244c-33.301-20.813-74.927 2.081-74.927 41.626v524.488c0 39.545 41.626 62.439 74.927 41.626l401.691-262.244c29.138-18.732 29.138-64.52 0-83.252zM740.943 793.496h10.407c22.894 0 41.626-18.732 41.626-41.626v-582.764c0-22.894-18.732-41.626-41.626-41.626h-10.407c-22.894 0-41.626 18.732-41.626 41.626v582.764c0 22.894 18.732 41.626 41.626 41.626z" />
<glyph unicode="&#xe942;" d="M503.749 882.994c253.021 0 458.371-205.35 458.371-458.371s-205.35-458.371-458.371-458.371-458.371 205.35-458.371 458.371 205.35 458.371 458.371 458.371z" />
<glyph unicode="&#xe943;" d="M404.741 571.302h-31.169c-13.751 0-25.669-11.918-25.669-25.669v-242.020c0-13.751 11.918-25.669 25.669-25.669h32.086c13.751 0 25.669 11.918 25.669 25.669v242.020c-0.917 13.751-11.918 25.669-26.585 25.669zM633.927 571.302h-32.086c-13.751 0-25.669-11.918-25.669-25.669v-242.020c0-13.751 11.918-25.669 25.669-25.669h32.086c13.751 0 25.669 11.918 25.669 25.669v242.020c0 13.751-11.918 25.669-25.669 25.669z" />
<glyph unicode="&#xe944;" glyph-name="A2" d="M832 64h-101.44l-72.576 210.24h-296.128l-68.416-210.24h-101.44l270.848 768h98.24l270.912-768zM629.504 361.024l-107.392 319.296c-3.392 10.176-7.040 28.096-11.008 53.504h-2.304c-3.392-23.168-7.232-40.96-11.456-53.504l-106.56-319.296h238.72z" />
<glyph unicode="&#xe945;" glyph-name="add" d="M848 486h-298v322h-76v-322h-298c-4.4 0-8-3.6-8-8v-60c0-4.4 3.6-8 8-8h298v-322h76v322h298c4.4 0 8 3.6 8 8v60c0 4.4-3.6 8-8 8z" />
<glyph unicode="&#xe946;" glyph-name="back" d="M724 741.7v77.3c0 6.7-7.7 10.4-12.9 6.3l-450.8-352.1c-16.4-12.8-16.4-37.5 0-50.3l450.8-352.1c5.3-4.1 12.9-0.4 12.9 6.3v77.3c0 4.9-2.3 9.6-6.1 12.6l-360 281 360 281.1c3.8 3 6.1 7.7 6.1 12.6z" />
<glyph unicode="&#xe947;" glyph-name="book" d="M841.322 872.911h-3.9l-296.309-80.78h-57.292l-297.244 81.066h-3.898c-47.329 0-85.833-38.504-85.833-85.834v-595.568c0-22.92 8.948-43.111 25.875-58.393 12.931-11.674 30.025-20.311 52.204-26.391 1.558-0.43 156.070-43.113 307.962-83.951 0.319-0.086 0.638-0.172 0.956-0.258h55.15c0.707 0.186 1.414 0.373 2.121 0.559 154.5 40.689 306.48 82.951 308.012 83.379l1.078 0.322c21.422 6.861 37.787 15.387 50.029 26.064 17.613 15.363 26.922 35.551 26.922 58.381v595.57c-0.001 47.328-38.505 85.834-85.833 85.834zM190.375 163.152c-35.303 9.676-35.303 22.967-35.303 28.643v595.568c0 14.134 10.678 25.822 24.39 27.421l303.424-82.752v-648.673c-146.655 39.502-290.952 79.362-292.511 79.793zM868.928 191.508c0-5.154 0-17.191-35.969-28.826-9.916-2.756-147.693-41.006-291.846-79.1v648.164l303.424 82.751c13.713-1.599 24.391-13.287 24.391-27.421v-595.568z" />
<glyph unicode="&#xe948;" glyph-name="book2" d="M742.4 38.4h-512c-14.131 0-25.6 11.469-25.6 25.6s11.469 25.6 25.6 25.6h512c14.131 0 25.6-11.469 25.6-25.6s-11.469-25.6-25.6-25.6zM844.8 806.4c-14.131 0-25.6-11.469-25.6-25.6v-768c0-14.131-11.469-25.6-25.6-25.6h-563.2c-42.342 0-76.8 34.458-76.8 76.8s34.458 76.8 76.8 76.8h460.8c42.342 0 76.8 34.458 76.8 76.8v614.4c0 42.342-34.458 76.8-76.8 76.8h-512c-42.342 0-76.8-34.458-76.8-76.8v-768c0-70.554 57.446-128 128-128h563.2c42.342 0 76.8 34.458 76.8 76.8v768c0 14.131-11.469 25.6-25.6 25.6zM179.2 857.6h512c14.131 0 25.6-11.469 25.6-25.6v-614.4c0-14.131-11.469-25.6-25.6-25.6h-460.8c-28.774 0-55.398-9.574-76.8-25.651v665.651c0 14.131 11.469 25.6 25.6 25.6z" />
<glyph unicode="&#xe949;" glyph-name="bookmark" d="M804.571 813.714h-585.143v-709.705l292.571 280.576 50.834-48.567 241.737-232.009v709.705zM811.447 886.857q13.166 0 25.161-5.12 18.871-7.461 29.989-23.406t11.118-35.401v-736.549q0-19.456-11.118-35.401t-29.989-23.406q-10.825-4.535-25.161-4.535-27.429 0-47.397 18.286l-251.977 242.322-251.977-242.322q-20.553-18.871-47.397-18.871-13.166 0-25.161 5.12-18.871 7.461-29.989 23.406t-11.118 35.401v736.549q0 19.456 11.118 35.401t29.989 23.406q11.995 5.12 25.161 5.12h598.821z" />
<glyph unicode="&#xe94a;" glyph-name="bright" d="M512 256c106.039 0 192 85.961 192 192s-85.961 192-192 192v0c-106.039 0-192-85.961-192-192s85.961-192 192-192v0zM512 192c-141.385 0-256 114.615-256 256s114.615 256 256 256v0c141.385 0 256-114.615 256-256s-114.615-256-256-256v0zM32 480h128c17.673 0 32-14.327 32-32s-14.327-32-32-32v0h-128c-17.673 0-32 14.327-32 32s14.327 32 32 32v0zM864 480h128c17.673 0 32-14.327 32-32s-14.327-32-32-32v0h-128c-17.673 0-32 14.327-32 32s14.327 32 32 32v0zM480-32v128c0 17.673 14.327 32 32 32s32-14.327 32-32v0-128c0-17.673-14.327-32-32-32s-32 14.327-32 32v0zM480 800v128c0 17.673 14.327 32 32 32s32-14.327 32-32v0-128c0-17.673-14.327-32-32-32s-32 14.327-32 32v0zM828.8 85.973l-90.539 90.496c-6.021 5.826-9.758 13.98-9.758 23.007 0 17.673 14.327 32 32 32 9.037 0 17.2-3.746 23.019-9.771l90.505-90.462c5.564-5.75 8.993-13.595 8.993-22.242 0-17.673-14.327-32-32-32-8.636 0-16.473 3.421-22.229 8.981l0.009-0.009zM240.469 674.261l-90.496 90.539c-6.274 5.858-10.185 14.178-10.185 23.412 0 17.673 14.327 32 32 32 9.234 0 17.554-3.911 23.394-10.166l0.017-0.019 90.539-90.496c6.021-5.826 9.758-13.98 9.758-23.007 0-17.673-14.327-32-32-32-9.037 0-17.2 3.746-23.019 9.771l-0.009 0.009zM874.069 764.8l-90.539-90.539c-5.826-6.021-13.98-9.758-23.007-9.758-17.673 0-32 14.327-32 32 0 9.037 3.746 17.2 9.771 23.019l90.462 90.505c5.699 5.321 13.376 8.588 21.815 8.588 17.673 0 32-14.327 32-32 0-8.44-3.267-16.116-8.606-21.834l0.017 0.019zM285.653 176.469l-90.453-90.496c-5.75-5.564-13.595-8.993-22.242-8.993-17.673 0-32 14.327-32 32 0 8.636 3.421 16.473 8.981 22.229l90.487 90.53c5.826 6.021 13.98 9.758 23.007 9.758 17.673 0 32-14.327 32-32 0-9.037-3.746-17.2-9.771-23.019l-0.009-0.009z" />
<glyph unicode="&#xe94b;" glyph-name="cart" d="M352.512 128c-35.36 0-64-28.64-64-64s28.64-64 64-64 64 28.64 64 64-28.64 64-64 64v0zM800.512 128c-35.36 0-64-28.64-64-64s28.64-64 64-64 64 28.64 64 64-28.64 64-64 64v0zM864 160h-519.776c-46.112 0-86.656 36.48-92.288 83.040l-54.272 382.080-30.88 178.56c-1.92 15.584-16.128 28.32-30.016 28.32h-40.768c-17.664 0-32 14.336-32 32s14.336 32 32 32h40.768c46.688 0 87.68-36.48 93.344-83.040l30.816-177.888 54.496-383.712c1.792-14.848 15.232-27.36 28.8-27.36h519.776c17.696 0 32-14.304 32-32s-14.304-32-32-32zM384.224 288c-16.608 0-30.656 12.8-31.872 29.664-1.312 17.632 11.936 32.96 29.536 34.24l434.112 32c15.936 0.096 29.376 12.608 31.136 26.848l50.4 288.384c1.28 10.752-1.696 22.528-8.128 29.824-4.128 4.672-9.312 7.040-15.36 7.040h-554.048c-17.664 0-32 14.336-32 32s14.336 32 32 32h554.048c24.448 0 46.912-10.144 63.264-28.608 18.688-21.088 27.264-50.816 23.52-81.632l-50.432-288.416c-5.44-44.864-45.952-81.344-92.064-81.344l-431.744-31.904c-0.8-0.064-1.6-0.096-2.368-0.096z" />
<glyph unicode="&#xe94c;" glyph-name="check" d="M912 770h-69.9c-9.8 0-19.1-4.5-25.1-12.2l-412.3-522.3-197.7 250.5c-6.1 7.7-15.3 12.2-25.1 12.2h-69.9c-6.7 0-10.4-7.7-6.3-12.9l273.9-347c12.8-16.2 37.4-16.2 50.3 0l488.4 618.9c4.1 5.1 0.4 12.8-6.3 12.8z" />
<glyph unicode="&#xe94d;" glyph-name="clock" d="M512 832c-247.424 0-448-200.576-448-448s200.576-448 448-448 448 200.576 448 448-200.576 448-448 448zM512 24c-198.824 0-360 161.178-360 360 0 198.824 161.176 360 360 360 198.822 0 360-161.176 360-360 0-198.822-161.178-360-360-360zM934.784 672.826c16.042 28.052 25.216 60.542 25.216 95.174 0 106.040-85.96 192-192 192-61.818 0-116.802-29.222-151.92-74.596 131.884-27.236 245.206-105.198 318.704-212.578zM407.92 885.404c-35.116 45.374-90.102 74.596-151.92 74.596-106.040 0-192-85.96-192-192 0-34.632 9.174-67.122 25.216-95.174 73.5 107.38 186.822 185.342 318.704 212.578zM448 640h64v-320h-64v320zM512 384h192v-64h-192v64z" />
<glyph unicode="&#xe94e;" glyph-name="close1" d="M563.8 448l262.5 312.9c4.4 5.2 0.7 13.1-6.1 13.1h-79.8c-4.7 0-9.2-2.1-12.3-5.7l-216.5-258.1-216.5 258.1c-3 3.6-7.5 5.7-12.3 5.7h-79.8c-6.8 0-10.5-7.9-6.1-13.1l262.5-312.9-262.5-312.9c-4.4-5.2-0.7-13.1 6.1-13.1h79.8c4.7 0 9.2 2.1 12.3 5.7l216.5 258.1 216.5-258.1c3-3.6 7.5-5.7 12.3-5.7h79.8c6.8 0 10.5 7.9 6.1 13.1l-262.5 312.9z" />
<glyph unicode="&#xe94f;" glyph-name="close-circle-fill" d="M512 896c-247.4 0-448-200.6-448-448s200.6-448 448-448 448 200.6 448 448-200.6 448-448 448zM677.4 277.8l-66 0.3-99.4 118.5-99.3-118.4-66.1-0.3c-4.4 0-8 3.5-8 8 0 1.9 0.7 3.7 1.9 5.2l130.1 155-130.1 154.9c-1.2 1.5-1.9 3.3-1.9 5.2 0 4.4 3.6 8 8 8l66.1-0.3 99.3-118.5 99.3 118.4 66 0.3c4.4 0 8-3.5 8-8 0-1.9-0.7-3.7-1.9-5.2l-129.9-154.9 130-155c1.2-1.5 1.9-3.3 1.9-5.2 0-4.4-3.6-8-8-8z" />
<glyph unicode="&#xe950;" glyph-name="cn" d="M870.791 198.036h-36.042v-72.082c0-39.812-32.269-72.085-72.085-72.085h-612.715c-39.815 0-72.089 32.272-72.089 72.085v504.59c0 39.812 32.272 72.085 72.089 72.085h36.038v72.089c0 39.812 32.272 72.082 72.085 72.082h612.718c39.812 0 72.085-32.269 72.085-72.082v-504.592c0-39.814-32.272-72.090-72.085-72.090zM149.95 666.59c-19.914 0-36.046-16.14-36.046-36.046v-504.589c0-19.905 16.132-36.046 36.046-36.046h612.715c19.905 0 36.038 16.14 36.038 36.046v504.589c0 19.905-16.132 36.046-36.038 36.046h-612.715zM906.838 774.717c0 19.905-16.135 36.038-36.046 36.038h-612.72c-19.902 0-36.038-16.132-36.038-36.038v-72.089h540.63c39.815 0 72.085-32.272 72.085-72.085v-396.461h36.042c19.91 0 36.046 16.135 36.046 36.042v504.593zM582.45 342.208h-72.089v-144.173h-108.123v144.173h-72.084v-36.046h-72.089v216.254h144.173v72.089h108.123v-72.089h144.173v-216.254h-72.085v36.046zM402.239 486.379h-72.084v-108.127h72.085v108.127zM582.45 486.379h-72.089v-108.127h72.089v108.127z" />
<glyph unicode="&#xe951;" glyph-name="down" d="M822.625 438.623c-12.513 12.513-32.735 12.513-45.248 0l-233.376-233.376v562.753c0 17.665-14.336 32.001-32.001 32.001s-32.001-14.336-32.001-32.001v-562.753l-233.376 233.376c-12.513 12.513-32.735 12.513-45.248 0s-12.513-32.735 0-45.248l288.001-287.968c2.943-2.976 6.495-5.312 10.431-6.944 3.872-1.632 8.032-2.463 12.193-2.463 4.159 0 8.321 0.833 12.224 2.463 3.936 1.632 7.455 3.968 10.431 6.944l288.001 287.968c12.48 12.513 12.48 32.737-0.031 45.248z" />
<glyph unicode="&#xe952;" glyph-name="down2" d="M890.335 629.089c-12.576 12.416-32.801 12.353-45.248-0.193l-327.839-330.848-332.416 329.439c-12.576 12.447-32.801 12.353-45.281-0.193-12.447-12.576-12.353-32.832 0.193-45.281l353.312-350.112c0.544-0.544 1.247-0.673 1.792-1.183 0.127-0.127 0.16-0.287 0.287-0.416 6.239-6.176 14.4-9.28 22.528-9.28 8.224 0 16.48 3.169 22.72 9.471l350.112 353.312c12.48 12.58 12.385 32.835-0.16 45.284z" />
<glyph unicode="&#xe953;" glyph-name="download" d="M624 253.7h-74.1v242.3c0 4.4-3.6 8-8 8h-60c-4.4 0-8-3.6-8-8v-242.3h-73.9c-6.7 0-10.4-7.7-6.3-12.9l112-141.7c3.2-4.1 9.4-4.1 12.6 0l112 141.7c4.1 5.2 0.4 12.9-6.3 12.9zM811.4 593.3c-45.8 120.8-162.5 206.7-299.2 206.7s-253.4-85.8-299.2-206.6c-85.7-22.5-149-100.6-149-193.4 0-110.5 89.5-200 199.9-200h40.1c4.4 0 8 3.6 8 8v60c0 4.4-3.6 8-8 8h-40.1c-33.7 0-65.4 13.4-89 37.7-23.5 24.2-36 56.8-34.9 90.6 0.9 26.4 9.9 51.2 26.2 72.1 16.7 21.3 40.1 36.8 66.1 43.7l37.9 9.9 13.9 36.6c8.6 22.8 20.6 44.1 35.7 63.4 14.9 19.2 32.6 35.9 52.4 49.9 41.1 28.9 89.5 44.2 140 44.2s98.9-15.3 140-44.2c19.9-14 37.5-30.8 52.4-49.9 15.1-19.3 27.1-40.7 35.7-63.4l13.8-36.5 37.8-10c54.2-14.6 92.1-63.9 92.1-120.1 0-33.1-12.9-64.3-36.3-87.7s-54.5-36.3-87.6-36.3h-40.1c-4.4 0-8-3.6-8-8v-60c0-4.4 3.6-8 8-8h40.1c110.4 0 199.9 89.5 199.9 200 0 92.7-63.1 170.7-148.6 193.3z" />
<glyph unicode="&#xe954;" glyph-name="download-remove" d="M894.816 445.024c-14.816 180.56-166.496 322.976-350.816 322.976-163.584 0-304.688-106.16-345.456-256h-6.544c-105.872 0-192-86.128-192-192s86.128-192 192-192h672c88.224 0 160 71.776 160 160 0 77.68-55.664 142.624-129.184 157.024zM864 192h-672c-70.576 0-128 57.424-128 128s57.424 128 128 128h32c0.002 0 0.005 0 0.008 0 15.58 0 28.559 11.134 31.415 25.879l0.032 0.201c25.024 133.232 146.384 229.92 288.544 229.92 158.8 0 288-129.2 288-288 0-17.673 14.327-32 32-32v0c52.944 0 96-43.056 96-96s-43.056-96-96-96zM630.624 502.624c-5.791 5.789-13.789 9.369-22.624 9.369s-16.833-3.58-22.624-9.369l-57.376-57.376-57.376 57.376c-5.827 6.027-13.985 9.769-23.017 9.769-17.673 0-32-14.327-32-32 0-9.032 3.742-17.19 9.76-23.009l57.385-57.385-57.376-57.376c-6.027-5.827-9.769-13.985-9.769-23.017 0-17.673 14.327-32 32-32 9.032 0 17.19 3.742 23.009 9.76l57.385 57.385 57.376-57.376c6.256-6.256 14.432-9.376 22.624-9.376s16.368 3.12 22.624 9.376c5.789 5.791 9.369 13.789 9.369 22.624s-3.58 16.833-9.369 22.624l-57.376 57.376 57.376 57.376c5.789 5.791 9.369 13.789 9.369 22.624s-3.58 16.833-9.369 22.624v0z" />
<glyph unicode="&#xe955;" glyph-name="en" d="M874.749 199.771h-36.621v-73.245c0-40.455-32.801-73.249-73.249-73.249h-622.622c-40.448 0-73.241 32.793-73.241 73.249v512.738c0 40.455 32.793 73.249 73.241 73.249h36.627v73.252c0 40.455 32.793 73.245 73.252 73.245h622.611c40.46 0 73.252-32.789 73.252-73.245v-512.741c0-40.458-32.793-73.253-73.252-73.253zM142.257 675.892c-20.224 0-36.621-16.4-36.621-36.627v-512.738c0-20.227 16.397-36.627 36.621-36.627h622.622c20.224 0 36.621 16.4 36.621 36.627v512.738c0 20.227-16.397 36.627-36.621 36.627h-622.622zM911.374 785.765c0 20.227-16.397 36.621-36.624 36.621h-622.612c-20.23 0-36.627-16.394-36.627-36.621v-73.252h549.371c40.448 0 73.249-32.793 73.249-73.249v-402.864h36.621c20.227 0 36.624 16.397 36.624 36.624v512.743zM618.378 382.897c0 0 4.262 36.621-36.627 36.621-16.672 0-36.621-8.017-36.621-36.621v-146.498h-73.249v219.746c0 0 69.371 0 146.498 0-2.187 0 73.249 4.516 73.249-73.249v-146.498h-73.249v146.499zM215.51 566.018h219.747v-36.627h-146.498v-109.873h109.87v-36.621h-109.87v-109.873h146.498v-36.624h-219.747v329.619z" />
<glyph unicode="&#xe956;" glyph-name="forward" d="M765.7 473.2l-450.8 352.1c-5.3 4.1-12.9 0.4-12.9-6.3v-77.3c0-4.9 2.3-9.6 6.1-12.6l360-281.1-360-281.1c-3.9-3-6.1-7.7-6.1-12.6v-77.3c0-6.7 7.7-10.4 12.9-6.3l450.8 352.1c16.4 12.8 16.4 37.6 0 50.4z" />
<glyph unicode="&#xe957;" glyph-name="headphone" d="M288.004 384.012h-63.999v-447.991h63.999c17.592 0 32.010 14.397 32.010 32.010v383.992c0 17.592-14.397 32.010-32.010 32.010zM735.996 384.012c-17.592 0-32.010-14.397-32.010-32.010v-383.992c0-17.592 14.397-32.010 32.010-32.010h63.999v447.991h-63.999zM1023.98 448.010c0 282.762-229.228 511.99-511.99 511.99s-511.99-229.228-511.99-511.99c0-61.418 10.834-120.297 30.658-174.834-19.476-33.197-30.658-71.863-30.658-113.15 0-112.843 83.454-206.189 191.996-221.712v443.404c-31.907-4.567-61.664-15.851-87.755-32.378-5.386 26.726-8.253 54.353-8.253 82.676 0 229.74 186.241 416.002 416.002 416.002s416.002-186.241 416.002-416.002c0-28.323-2.826-55.971-8.212-82.697-26.091 16.548-55.848 27.852-87.776 32.419v-443.424c108.542 15.524 191.996 108.87 191.996 221.712 0 41.266-11.182 79.932-30.637 113.129 19.824 54.558 30.637 113.457 30.637 174.855z" />
<glyph unicode="&#xe958;" glyph-name="menu" d="M133.311 663.448h757.206c19.782 0 35.951 16.169 35.951 35.951s-15.997 35.951-35.951 35.951h-757.206c-19.782 0-35.951-16.169-35.951-35.951s16.169-35.951 35.951-35.951zM890.517 483.865h-757.206c-19.782 0-35.951-16.169-35.951-35.951s16.169-35.951 35.951-35.951h757.206c19.782 0 35.951 16.169 35.951 35.951s-16.169 35.951-35.951 35.951zM890.517 232.552h-757.206c-19.782 0-35.951-15.997-35.951-35.951s16.169-35.951 35.951-35.951h757.206c19.782 0 35.951 15.997 35.951 35.951s-16.169 35.951-35.951 35.951z" />
<glyph unicode="&#xe959;" glyph-name="more" d="M415.93 736.21c0 52.98 43.004 95.984 95.984 95.984s95.984-43.004 95.984-95.984-43.004-95.984-95.984-95.984-95.984 43.004-95.984 95.984zM415.93 448.258c0 52.98 43.004 95.984 95.984 95.984s95.984-43.004 95.984-95.984-43.004-95.984-95.984-95.984-95.984 43.004-95.984 95.984zM415.93 160.134c0 52.98 43.004 95.984 95.984 95.984s95.984-43.004 95.984-95.984-43.004-95.984-95.984-95.984-95.984 43.176-95.984 95.984z" />
<glyph unicode="&#xe95a;" glyph-name="move" d="M840.704 704c-3.456 0-13.056 0-36.992 0-82.624 0-82.496 128-140.864 128-86.080 0-233.984 0-314.432 0-17.088 0-29.056 0-37.184 0-65.792 0-119.232-53.44-119.232-119.296v-136.704h64v136.704c0 30.464 24.832 55.296 55.232 55.296h339.456c3.968-6.144 9.024-15.36 12.672-22.208 21.44-39.552 57.344-105.792 140.352-105.792h36.992c28.416 0 55.296-31.104 55.296-64v-392.768c0-30.4-24.832-55.232-55.296-55.232h-529.472c-30.4 0-55.232 24.832-55.232 55.232v72.768h-64v-72.768c0-65.856 53.44-119.232 119.232-119.232h529.408c65.92 0 119.36 53.376 119.36 119.232v392.768c0 65.856-53.44 128-119.296 128zM497.344 266.176l133.056 129.856c0.128 0.128 0.192 0.32 0.32 0.512 2.816 2.816 5.184 9.536 6.784 13.248 1.344 3.456 1.856 0.64 2.112 4.096 0 0.768 0.384 1.408 0.384 2.112 0 0.512-0.256 0.896-0.256 1.344-0.192 3.84-0.896 5.76-2.24 9.344-1.344 3.264-3.52 6.016-5.76 8.64-0.512 0.64-0.768 1.536-1.344 2.112l-133.056 132.928c-12.8 12.864-33.6 6.976-46.4-5.888-12.864-12.8-12.864-33.6 0-46.464l76.864-70.976-429.632-0.064c-18.752 0-33.984-12.8-33.92-30.912-0.064-18.112 15.168-29.696 33.984-29.696h429.632l-76.864-79.552c-12.864-12.864-12.864-33.6 0-46.528 6.4-6.4 14.72-3.776 23.168-3.776s16.832 3.328 23.168 9.664z" />
<glyph unicode="&#xe95b;" glyph-name="person" horiz-adv-x="1025" d="M509.478 895.999c86.090 0 144.558-29.44 173.733-87.505 24.382-48.56 24.382-107.249 24.382-159.001 0-67.121-33.712-147.281-92.562-219.874l-37.318-46.096 42.977-40.84c19.471-18.44 61.708-41.256 137.967-79.569 71.412-35.872 119.985-61.152 143.189-84.497 40.9-41.096 52.808-118.001 53.366-156.969 0.096-5.688-2.117-11.248-6.066-15.28-4.044-4.136-9.425-6.384-15.14-6.384h-849.105c-5.636 0-11.168 2.312-15.117 6.384-3.948 4.032-6.169 9.592-6.113 15.248 0.183 10.744 3.128 106.473 53.366 157.001 23.204 23.312 71.786 48.552 143.189 84.497 76.227 38.248 118.496 61.104 137.967 79.633l42.977 40.816-37.318 46.064c-58.779 72.561-92.53 152.721-92.53 219.874 0 51.752 0 110.441 24.382 159.001 29.214 58.056 87.627 87.497 173.773 87.497v0zM509.478 960c-139.671 0-202.493-66.689-230.585-122.665-31.228-62.152-31.228-131.841-31.228-187.841 0-82.561 39.188-176.809 106.803-260.282-16.175-15.352-82.731-48.792-122.723-68.841-79.308-39.872-129.633-66.249-159.723-96.505-66.635-66.961-71.674-179.369-72.001-201.242-0.374-22.824 8.414-44.872 24.382-61.192 15.952-16.24 37.756-25.432 60.498-25.432h849.113c22.758 0 44.538 9.184 60.49 25.432 15.96 16.32 24.756 38.376 24.414 61.224-0.342 21.84-5.413 134.249-72.032 201.21-30.042 30.256-80.399 56.632-159.731 96.505-39.992 20.056-106.556 53.496-122.699 68.841 67.583 83.473 106.803 177.721 106.803 260.282 0 56 0 125.689-31.196 187.841-28.108 55.976-90.938 122.665-230.585 122.665v0 0z" />
<glyph unicode="&#xe95c;" glyph-name="play_backward" d="M814.976 737.696c-10.432 5.504-23.168 4.832-32.96-1.824l-206.016-140.16v113.696c0 11.872-6.56 22.72-17.024 28.288-10.432 5.504-23.168 4.832-32.96-1.824l-384-261.248c-8.768-5.952-14.016-15.872-14.016-26.464s5.248-20.512 14.016-26.464l384-261.376c5.408-3.68 11.68-5.568 17.984-5.568 5.12 0 10.272 1.216 14.976 3.712 10.464 5.536 17.024 16.448 17.024 28.288v113.792l206.016-140.224c5.408-3.68 11.68-5.568 17.984-5.568 5.12 0 10.272 1.216 14.976 3.712 10.464 5.536 17.024 16.448 17.024 28.288v522.656c0 11.872-6.56 22.72-17.024 28.288z" />
<glyph unicode="&#xe95d;" glyph-name="play_forward" d="M881.984 474.464l-384 261.408c-5.032 3.446-11.252 5.503-17.952 5.503-17.668 0-31.995-14.304-32.032-31.964v-113.796l-206.016 140.256c-5.032 3.446-11.252 5.503-17.952 5.503-17.668 0-31.995-14.304-32.032-31.964v-522.66c0.037-17.663 14.364-31.967 32.032-31.967 6.7 0 12.92 2.057 18.062 5.574l-0.11-0.071 206.016 140.16v-113.696c0.037-17.663 14.364-31.967 32.032-31.967 6.7 0 12.92 2.057 18.062 5.574l-0.11-0.071 384 261.28c8.532 5.814 14.061 15.485 14.061 26.448s-5.529 20.634-13.951 26.377l-0.11 0.071z" />
<glyph unicode="&#xe95e;" glyph-name="play_go" d="M512 896c-247.4 0-448-200.6-448-448s200.6-448 448-448 448 200.6 448 448-200.6 448-448 448zM656.1 441.1l-218.4-158.9c-1.4-1-3-1.5-4.7-1.5-4.4 0-8 3.6-8 8v317.6c0 1.7 0.5 3.3 1.5 4.7 2.6 3.6 7.6 4.4 11.2 1.8l218.4-158.8c0.7-0.5 1.3-1.1 1.8-1.8 2.6-3.5 1.8-8.5-1.8-11.1z" />
<glyph unicode="&#xe95f;" glyph-name="play_pause" d="M512 896c-247.4 0-448-200.6-448-448s200.6-448 448-448 448 200.6 448 448-200.6 448-448 448zM432 296c0-4.4-3.6-8-8-8h-48c-4.4 0-8 3.6-8 8v304c0 4.4 3.6 8 8 8h48c4.4 0 8-3.6 8-8v-304zM656 296c0-4.4-3.6-8-8-8h-48c-4.4 0-8 3.6-8 8v304c0 4.4 3.6 8 8 8h48c4.4 0 8-3.6 8-8v-304z" />
<glyph unicode="&#xe960;" glyph-name="private" d="M876.384 735.072h-729.536c-45.28 0-82.112-37.696-82.112-84.032v-439.904c0-46.336 37.344-84.064 83.264-84.064h199.296c33.888 0 64.096 20.48 77.056 52.32l57.888 144.896c5.152 12.672 17.152 20.832 30.56 20.832 13.376 0 25.344-8.192 30.4-20.672l58.016-145.28c12.672-31.2 43.232-52.128 75.968-52.128h199.232c46.496 0 84.352 37.728 84.352 84.064v439.936c-0.064 46.304-37.888 84.032-84.384 84.032zM307.072 351.936c-61.76 0-112 50.24-112 112s50.24 112 112 112 112-50.24 112-112c0-61.76-50.24-112-112-112zM722.368 351.936c-61.76 0-112 50.24-112 112s50.24 112 112 112 112-50.24 112-112c0-61.76-50.24-112-112-112z" />
<glyph unicode="&#xe961;" glyph-name="private-see" d="M876.448 735.072h-729.536c-45.28 0-82.112-37.696-82.112-84.032v-439.904c0-46.336 37.344-84.064 83.264-84.064h199.296c33.888 0 64.096 20.48 77.056 52.32l57.888 144.896c5.152 12.672 17.152 20.832 30.56 20.832 13.376 0 25.344-8.192 30.4-20.672l58.016-145.28c12.672-31.2 43.232-52.128 75.968-52.128h199.232c46.496 0 84.352 37.728 84.352 84.064v439.936c-0.064 46.304-37.888 84.032-84.384 84.032zM896.768 211.136c0-11.264-8.928-20.064-20.352-20.064h-199.232c-6.88 0-13.76 5.024-16.608 12.064l-58.016 145.28c-15.040 36.864-50.24 60.704-89.792 60.704s-74.816-23.84-89.92-60.896l-57.888-144.896c-3.040-7.424-9.984-12.256-17.696-12.256h-199.232c-10.624 0-19.264 8.992-19.264 20.064v439.904c0 10.656 8.48 20.032 18.112 20.032h729.536c11.392 0 20.352-8.8 20.352-20.032v-439.904zM642.432 463.936c0-44.183 35.817-80 80-80s80 35.817 80 80v0c0 44.183-35.817 80-80 80s-80-35.817-80-80v0zM223.936 463.936c0-44.183 35.817-80 80-80s80 35.817 80 80v0c0 44.183-35.817 80-80 80s-80-35.817-80-80v0z" />
<glyph unicode="&#xe962;" glyph-name="progress" d="M514.688 740.288c-167.895 0-304-136.105-304-304s136.105-304 304-304v0c167.895 0 304 136.105 304 304s-136.105 304-304 304v0zM514.688 186.944c-139.9 0-253.312 113.412-253.312 253.312s113.412 253.312 253.312 253.312v0c139.9 0 253.312-113.412 253.312-253.312s-113.412-253.312-253.312-253.312v0zM0 461.632h189.312v-50.752h-189.312zM834.688 461.632h189.312v-50.752h-189.312z" />
<glyph unicode="&#xe963;" glyph-name="pull_down" d="M894.944 479.040c-9.248 24.864-36.864 37.472-61.728 28.224l-321.472-119.776-318.208 121.248c-24.768 9.504-52.512-3.008-61.952-27.776s3.008-52.512 27.776-61.952l334.080-127.232c1.536-0.608 3.104-0.448 4.64-0.832 0.864-0.288 1.824-0.288 2.72-0.512 3.232-0.672 6.464-1.824 9.696-1.824 0.352 0 0.672 0.16 1.056 0.16 0.352 0 0.672-0.16 1.024-0.16 3.456 0 6.944 1.088 10.432 1.888 0.576 0.192 1.216 0.16 1.792 0.352 1.504 0.416 3.040 0.256 4.512 0.8l337.376 125.632c24.864 9.28 37.504 36.896 28.256 61.76z" />
<glyph unicode="&#xe964;" glyph-name="search" horiz-adv-x="1025" d="M786.527 218.645c68.169 78.597 109.424 181.171 109.424 293.379 0 247.41-200.566 447.976-447.976 447.976s-447.976-200.565-447.976-447.976c0-247.41 200.566-447.976 447.976-447.976 112.168 0 214.707 41.225 293.293 109.35l228.045-228.045c12.37-12.37 32.812-12.552 45.308-0.056 12.583 12.583 12.471 32.781-0.056 45.308l-228.040 228.040zM447.976 128.045c-212.066 0-383.979 171.913-383.979 383.979s171.913 383.979 383.979 383.979c212.066 0 383.979-171.913 383.979-383.979s-171.913-383.979-383.979-383.979v0 0 0 0 0 0z" />
<glyph unicode="&#xe965;" glyph-name="selected" d="M512 896c-247.4 0-448-200.6-448-448s200.6-448 448-448 448 200.6 448 448-200.6 448-448 448zM705.5 594.3l-210.6-292c-12.7-17.7-39-17.7-51.7 0l-124.7 172.8c-3.8 5.3 0 12.7 6.5 12.7h46.9c10.2 0 19.9-4.9 25.9-13.3l71.2-98.8 157.2 218c6 8.3 15.6 13.3 25.9 13.3h46.9c6.5 0 10.3-7.4 6.5-12.7z" />
<glyph unicode="&#xe966;" glyph-name="settings" d="M64 208h566.7c12.372 28.224 40.562 48 73.3 48s60.93-19.776 73.3-48h182.7v-64h-182.7c-12.372-28.224-40.562-48-73.3-48s-60.93 19.776-73.3 48h-566.7zM64 480h182.7c12.372 28.224 40.562 48 73.3 48s60.93-19.776 73.3-48h566.7v-64h-566.7c-12.372-28.224-40.562-48-73.3-48s-60.93 19.776-73.3 48h-182.7zM64 752h566.7c12.372 28.224 40.562 48 73.3 48s60.93-19.776 73.3-48h182.7v-64h-182.7c-12.372-28.224-40.562-48-73.3-48s-60.93 19.776-73.3 48h-566.7z" />
<glyph unicode="&#xe967;" glyph-name="shake" d="M324 294c0-26.51 21.49-48 48-48s48 21.49 48 48v0c0 26.51-21.49 48-48 48s-48-21.49-48-48v0zM940.7 603.6l-273.1 273.2c-12.4 12.3-28.9 19.2-46.5 19.2s-34.1-6.8-46.5-19.2l-491.3-491.3c-25.7-25.7-25.7-67.4 0-93.1l273.2-273.2c12.3-12.3 28.9-19.2 46.5-19.2s34.1 6.8 46.5 19.2l491.3 491.3c25.6 25.7 25.6 67.5-0.1 93.1zM403 79.9l-259.1 259.1 477.2 477.2 259-259.2-477.1-477.1zM152.8 586.3c3.1-3.1 8.1-3.1 11.2 0l209.7 209.7c3.1 3.1 3.1 8.1 0 11.2l-38.4 38.4c-3.1 3.1-8.1 3.1-11.2 0l-209.8-209.5c-3.1-3.1-3.1-8.1 0-11.2l38.5-38.6zM871.4 309.7c-3.1 3.1-8.1 3.1-11.2 0l-209.9-209.8c-3.1-3.1-3.1-8.1 0-11.2l38.4-38.4c3.1-3.1 8.1-3.1 11.2 0l209.8 209.7c3.1 3.1 3.1 8.1 0 11.2l-38.3 38.5z" />
<glyph unicode="&#xe968;" glyph-name="share" d="M921.6 568.209c-15.583 0-28.939-13.357-28.939-28.939v-451.896h-756.87v451.896c0 15.583-13.357 28.939-28.939 28.939s-28.939-13.357-28.939-28.939v-480.835c0-15.583 13.357-28.939 28.939-28.939h816.974c15.583 0 28.939 13.357 28.939 28.939v480.835c-2.226 15.583-15.583 28.939-31.165 28.939zM338.365 641.67c6.678 0 15.583 2.226 20.035 8.904l126.887 122.435v-311.652c0-15.583 13.357-28.939 28.939-28.939s28.939 13.357 28.939 28.939v311.652l126.887-122.435c6.678-4.452 13.357-8.904 20.035-8.904s15.583 2.226 20.035 8.904c11.13 11.13 11.13 28.939 0 40.070l-175.861 171.409c-4.452 4.452-11.13 6.678-17.809 6.678 0 0-2.226 0-2.226 0s-2.226 0-2.226 0c-6.678 0-13.357-2.226-17.809-6.678l-175.861-169.183c-11.13-11.13-11.13-28.939 0-40.070 4.452-8.904 13.357-11.13 20.035-11.13z" />
<glyph unicode="&#xe969;" glyph-name="shelf" d="M921.6 505.344h-698.368c-83.968 0-151.552 75.776-151.552 167.936s67.584 167.936 151.552 167.936h698.368c16.384 0 30.72-14.336 30.72-30.72v-6.144c0-12.288-8.192-24.576-20.48-28.672-40.96-14.336-69.632-53.248-69.632-100.352 0-45.056 28.672-88.064 69.632-100.352 12.288-4.096 20.48-16.384 20.48-28.672v-6.144c0-22.528-14.336-34.816-30.72-34.816zM223.232 777.728c-49.152 0-90.112-47.104-90.112-106.496s40.96-106.496 90.112-106.496h612.352c-22.528 28.672-34.816 65.536-34.816 106.496 0 38.912 12.288 75.776 34.816 106.496h-612.352zM800.768 56.832h-698.368c-16.384 0-30.72 14.336-30.72 30.72v6.144c0 14.336 8.192 24.576 20.48 28.672 40.96 14.336 69.632 55.296 69.632 100.352 0 47.104-28.672 88.064-69.632 100.352-12.288 4.096-20.48 16.384-20.48 28.672v6.144c0 16.384 14.336 30.72 30.72 30.72h698.368c83.968 0 151.552-75.776 151.552-167.936s-67.584-163.84-151.552-163.84zM188.416 118.272h612.352c49.152 0 90.112 47.104 90.112 106.496s-40.96 106.496-90.112 106.496h-612.352c22.528-28.672 34.816-65.536 34.816-106.496 0-38.912-12.288-75.776-34.816-106.496z" />
<glyph unicode="&#xe96a;" glyph-name="speak" d="M438.279 85.109h-248.225v48.131h200.094v77.439l-92.539 65.993c-8.011 5.782-13.198 15.045-13.325 25.527v0.020c-0.105 10.13 4.677 19.789 12.785 25.828l93.079 69.424v104.701l74.595 5.923-160.953 298.049 42.351 22.89 196.063-363.102-103.925-8.225v-68.413c0-9.988-4.771-19.506-12.762-25.476l-81.716-60.963 81.151-57.862c8.367-5.994 13.325-15.652 13.325-25.875v-134.008zM173.559 677.619c0-24.294 19.694-43.988 43.988-43.988s43.988 19.694 43.988 43.988v0c0 24.294-19.694 43.988-43.988 43.988s-43.988-19.694-43.988-43.988v0zM554.742 228.847c-10.54 0-20.211 6.98-23.173 17.626-3.56 12.809 3.937 26.064 16.733 29.636 12.151 3.361 20.635 14.524 20.635 27.144 0 12.503-8.015 23.338-19.941 26.957-12.726 3.877-19.894 17.32-16.040 30.035 3.877 12.738 17.38 19.859 30.024 16.028 32.35-9.847 54.089-39.177 54.089-73.020 0-34.148-22.973-64.371-55.863-73.537-2.162-0.588-4.337-0.87-6.463-0.87zM625.635 139.469c-8.66 0-17.016 4.677-21.328 12.879-6.181 11.751-1.657 26.298 10.106 32.48 44.301 23.29 71.822 68.813 71.822 118.802 0 49.189-26.886 94.36-70.153 117.885-11.68 6.346-16.005 20.963-9.648 32.643 6.346 11.68 20.94 15.981 32.632 9.659 58.778-31.962 95.299-93.349 95.299-160.188 0-67.92-37.379-129.777-97.556-161.387-3.238-1.745-7.087-2.771-11.175-2.773h-0.001zM697.727 66.966c-8.66 0-17.016 4.677-21.328 12.879-6.181 11.751-1.657 26.299 10.106 32.48 71.434 37.556 115.804 110.976 115.804 191.586 0 79.342-43.349 152.174-113.114 190.106-11.68 6.369-16.005 20.963-9.648 32.643 6.346 11.704 20.963 15.981 32.632 9.659 85.287-46.369 138.261-135.417 138.261-232.409 0-98.567-54.23-188.297-141.54-234.171-3.238-1.745-7.086-2.771-11.174-2.773h-0.001z" />
<glyph unicode="&#xe96b;" glyph-name="up" d="M887.328 342.848l-353.377 350.145c-0.513 0.513-1.216 0.673-1.76 1.153-0.127 0.127-0.16 0.32-0.287 0.447-12.576 12.416-32.832 12.353-45.281-0.193l-350.112-353.344c-12.447-12.576-12.353-32.801 0.193-45.248 6.239-6.176 14.4-9.28 22.528-9.28 8.224 0 16.48 3.169 22.72 9.471l327.841 330.817 332.48-329.408c6.239-6.176 14.369-9.28 22.528-9.28 8.255 0 16.48 3.169 22.72 9.471 12.447 12.545 12.351 32.802-0.193 45.25z" />
</font>
</defs>
</svg>
